<?xml version="1.0" encoding="utf-8"?>
<!-- Generator: Adobe Illustrator 18.0.0, SVG Export Plug-In . SVG Version: 6.00 Build 0)  -->
<!DOCTYPE svg PUBLIC "-//W3C//DTD SVG 1.1//EN" "http://www.w3.org/Graphics/SVG/1.1/DTD/svg11.dtd">
<svg version="1.1" id="Layer_1" xmlns="http://www.w3.org/2000/svg" xmlns:xlink="http://www.w3.org/1999/xlink" x="0px" y="0px"
	 viewBox="88.3 248 439.3 288" enable-background="new 88.3 248 439.3 288" xml:space="preserve">
<g>
	<path fill="#B30838" d="M159.3,364.7c0,0.9,0.7,1.6,1.6,1.6h8.4c0.9,0,1.6-0.7,1.6-1.6v-2.9h-11.6V364.7z"/>
	<path fill="#B30838" d="M165,413.9c-2.1,0-3.8,1.7-3.8,3.8c0,0.2,0,0.4,0,0.5v8.1h7.6v-8.1c0-0.2,0-0.3,0-0.5
		C168.9,415.6,167.2,413.9,165,413.9z"/>
	<polygon fill="#B30838" points="301.7,408.5 280.5,408.5 280.5,409.9 300.3,409.9 	"/>
	<polygon fill="#B30838" points="336.4,408.5 315.4,408.5 316.7,409.9 336.4,409.9 	"/>
	<rect x="283.8" y="412.2" fill="#B30838" width="6" height="13.2"/>
	<rect x="294.6" y="412.2" fill="#B30838" width="6" height="13.2"/>
	<rect x="327.1" y="412.2" fill="#B30838" width="5.9" height="13.2"/>
	<path fill="#B30838" d="M311.6,425.1v-9.9c0-0.2,0-0.3,0-0.5c0-1.9-1.5-3.4-3.4-3.4c-1.9,0-3.4,1.5-3.4,3.4c0,0.2,0,0.3,0,0.5v9.9
		H311.6z"/>
	<rect x="316.5" y="412.2" fill="#B30838" width="5.9" height="13.2"/>
	<rect x="268.9" y="416.3" fill="#B30838" width="2.1" height="6.7"/>
	<rect x="268.9" y="405.1" fill="#B30838" width="2.1" height="6.7"/>
	<rect x="268.9" y="393.8" fill="#B30838" width="2.1" height="6.7"/>
	<rect x="272.8" y="416.3" fill="#B30838" width="2.1" height="6.7"/>
	<rect x="272.8" y="405.1" fill="#B30838" width="2.1" height="6.7"/>
	<rect x="272.8" y="393.8" fill="#B30838" width="2.1" height="6.7"/>
	<rect x="276.6" y="416.3" fill="#B30838" width="2.1" height="6.7"/>
	<rect x="276.6" y="405.1" fill="#B30838" width="2.1" height="6.7"/>
	<rect x="276.6" y="393.8" fill="#B30838" width="2.1" height="6.7"/>
	<path fill="#B30838" d="M457.4,364.7v-2.9h-11.6v2.9c0,0.9,0.7,1.6,1.6,1.6h8.4C456.7,366.3,457.4,365.6,457.4,364.7z"/>
	<path fill="#B30838" d="M451.6,413.9c-2.1,0-3.8,1.7-3.8,3.8c0,0.2,0,0.4,0,0.5v8.1h7.6v-8.1c0-0.2,0-0.3,0-0.5
		C455.4,415.6,453.7,413.9,451.6,413.9z"/>
	<rect x="345.6" y="416.3" fill="#B30838" width="2.1" height="6.7"/>
	<rect x="345.6" y="405.1" fill="#B30838" width="2.1" height="6.7"/>
	<rect x="345.6" y="393.8" fill="#B30838" width="2.1" height="6.7"/>
	<rect x="341.8" y="416.3" fill="#B30838" width="2.1" height="6.7"/>
	<rect x="341.8" y="405.1" fill="#B30838" width="2.1" height="6.7"/>
	<rect x="341.8" y="393.8" fill="#B30838" width="2.1" height="6.7"/>
	<rect x="337.9" y="416.3" fill="#B30838" width="2.1" height="6.7"/>
	<rect x="337.9" y="405.1" fill="#B30838" width="2.1" height="6.7"/>
	<rect x="337.9" y="393.8" fill="#B30838" width="2.1" height="6.7"/>
	<path fill="#B30838" d="M492,337.1c-12.5-16.8-29.9-30.6-50.3-39.7c-38.4-17.2-80.9-25.2-133.8-25.4c-52.2-0.1-94.7,7.9-133.7,25.4
		c-20.4,9.2-37.8,22.8-50.3,39.6c-13.3,17.9-20.3,38.4-20.3,59.4c0,21,7,41.6,20.3,59.5c12.5,16.8,29.9,30.6,50.3,39.7
		c38.4,17.2,80.9,25.2,133.8,25.4c52.2,0.1,94.7-7.9,133.7-25.4c20.4-9.2,37.8-22.8,50.3-39.6c13.3-17.9,20.3-38.4,20.3-59.4
		C512.4,375.6,505.3,355,492,337.1z M490.2,454.7c-12.2,16.4-29.3,29.9-49.4,38.9c-38.7,17.3-80.8,25.3-132.7,25.2
		c-52.6-0.1-94.8-8.1-132.9-25.2c-20-9-37.1-22.5-49.4-39c-13-17.5-19.9-37.6-19.9-58.2c0-20.5,6.9-40.6,19.9-58.1
		c12.2-16.4,29.3-29.9,49.4-38.9c38.7-17.3,80.8-25.3,132.7-25.2c52.6,0.1,94.8,8.1,132.9,25.2c20,9,37.1,22.5,49.4,39
		c13,17.5,19.9,37.6,19.9,58.2C510.1,417.2,503.2,437.3,490.2,454.7z"/>
	<path fill="#B30838" d="M486.5,341.2c-11.8-15.9-28.2-28.9-47.6-37.5c-37.4-16.8-79.1-24.6-131-24.8c-51.2-0.1-92.8,7.7-130.8,24.8
		c-19.4,8.7-35.8,21.6-47.6,37.4c-12.4,16.7-19,35.8-19,55.3c0,19.5,6.6,38.7,19,55.4c11.8,15.9,28.2,28.9,47.6,37.5
		c37.4,16.8,79.1,24.6,131,24.8c51.2,0.1,92.8-7.7,130.8-24.8c19.4-8.7,35.8-21.6,47.6-37.4c12.4-16.7,19-35.8,19-55.3
		C505.4,377.1,498.9,357.9,486.5,341.2z M482.8,449.2c-11.3,15.2-27.1,27.6-45.8,35.9c-37.4,16.8-78.4,24.5-128.9,24.4
		c-51.3-0.1-92.3-7.9-129.1-24.4c-18.6-8.3-34.4-20.8-45.8-36.1c-11.8-15.9-18.1-34.1-18.1-52.7c0-18.5,6.2-36.7,18-52.6
		c11.3-15.2,27.1-27.6,45.8-35.9c37.4-16.8,78.4-24.5,128.9-24.4c51.3,0.1,92.3,7.9,129.1,24.4c18.6,8.3,34.4,20.8,45.8,36.1
		c11.8,15.9,18.1,34.1,18.1,52.7C500.8,415.2,494.6,433.4,482.8,449.2z"/>
	<path fill="#B30838" d="M182.6,449.5c0-2.5,2.5-3.3,4.5-3.3c2,0,4.1,0.8,5.5,2.3v-4.1c-1.7-0.5-3.5-0.8-5.2-0.8
		c-4.3,0-8.8,1.7-8.8,6.3c0,7.7,12.1,6.7,12.1,12.3c0,2.5-3,3.8-5,3.8c-2.7,0-5.6-1.2-7.7-3l1,4.5c2,0.8,4.1,1.1,6.3,1.1
		c5.5,0,9.4-3.6,9.4-7.5C194.7,454.4,182.6,454.5,182.6,449.5z"/>
	<path fill="#B30838" d="M224.3,444.3c2.7,1,1.6,3.9,0.9,6l-4,13.3l-4.9-15.7c-0.5-1.6-0.7-2.8-0.5-3.7h-5v0.1
		c1.9,1,1.2,3.4,0.6,5.6l-4.1,13.8l-5.2-16.9c-0.2-0.7-0.6-1.8-0.4-2.6h-5.1v0.1c1.8,1.2,2.3,3.6,2.9,5.6l4.1,13.4
		c1.2,3.7,1.5,3.5,4.7,5.9l5.5-18.3l3.9,12.5c1.2,3.7,1.4,3.6,4.6,5.8l7.4-24.9h-5.4L224.3,444.3L224.3,444.3z"/>
	<path fill="#B30838" d="M251.4,462.8l-7.3-18.6h-5.6v0.1c1.7,0.5,1,2.1,0.5,3.4l-5.9,15.1c-0.8,2.1-1.4,4.1-3.4,5.1v0.1h6.5v-0.1
		c-1.7-0.6-1.4-1.7-0.7-3.7l1.8-5.1h8.9l1.9,5.1c0.9,2.5,1.2,2.9-0.5,3.7v0.1h7.2v-0.1C252.8,466.9,252.2,464.8,251.4,462.8z
		 M238.3,456.4l3.5-9.1l3.4,9.1H238.3z"/>
	<path fill="#B30838" d="M272.1,463l-5.1-6.6c2.9-0.7,5.6-3.2,5.6-6.4c0-3.3-2.6-5.8-7.3-5.8H257v0.1c1.8,0.7,1.5,3.3,1.5,5V463
		c0,1.6,0.2,4.3-1.5,5v0.1h6.7v-0.1c-1.8-0.6-1.6-3.3-1.6-5v-16.2c0.8-0.1,1.6-0.3,2.4-0.3c2.4-0.1,4.5,1.4,4.5,4
		c0,3.4-3.3,4.8-6.1,5.2l3.2,5.1l4.3,5.5c1.1,1.3,2.2,1.8,4.1,1.8h3.2C275.8,466.7,273.5,464.8,272.1,463z"/>
	<path fill="#B30838" d="M293.8,444.2h-13.1h-0.9c-0.5-0.1-0.9-0.1-1.3-0.3h-0.1l-1.2,4.3h0.1c1.1-1.1,2.7-1.5,4.2-1.5h3.1V463
		c0,1.6,0.2,4.3-1.5,5v0.1h7v-0.1c-1.9-1.1-1.8-2.5-1.8-4.6v-16.5h3.2c1.2,0,2.6,0.2,3,1.5h0.1l1.1-4.3h-0.1
		C295,444.2,294.4,444.2,293.8,444.2z"/>
	<path fill="#B30838" d="M317,444.3c1.8,0.7,1.5,3.3,1.5,5v4.5h-12.7v-4.5c0-1.7-0.2-4.3,1.5-5v-0.1h-6.7v0.1c1.8,0.7,1.5,3.3,1.5,5
		V463c0,1.6,0.2,4.3-1.5,5v0.1h6.7v-0.1c-1.8-0.7-1.5-3.3-1.5-5v-6.6h12.7v6.6c0,1.6,0.2,4.3-1.5,5v0.1h6.7v-0.1
		c-1.8-0.7-1.6-3.3-1.6-5v-13.7c0-1.6-0.2-4.3,1.6-5v-0.1H317V444.3z"/>
	<path fill="#B30838" d="M360.4,464.2l-2.3-17.8c0-0.8,0.2-1.9,1.1-2.1v-0.1h-6.1v0c0,0.8-0.2,1.5-0.5,2.2l-5.8,15.4l-6.6-16
		c-0.2-0.5-0.5-1.1-0.5-1.6v0h-6.1v0.1c1.6,0.9,1.2,2.4,1.1,3.4l-2,15.2c-0.3,2-0.5,3.7-2,5.1v0.1h5.7v-0.1
		c-1.7-0.8-1.4-2.4-1.1-4.6l2-15.6l6.7,16.3c0.8,2,1.3,3,3.1,4.4l7.9-20.8l2,17.5c0,1.2-0.2,2.3-1.4,2.7v0.1h6.8v-0.1
		C360.7,466.9,360.6,465.9,360.4,464.2z"/>
	<path fill="#B30838" d="M379.6,443.6c-7.4-0.2-13.2,5.6-13.2,12.5c0,7.4,5.9,12.6,12.8,12.6c7,0,12.9-5.4,12.9-12.8
		C392.2,449.3,387,443.5,379.6,443.6z M379.4,466c-5.5,0-9-5.2-9-10.3c0-5.5,3.5-9.5,8.9-9.5c5.6,0,8.8,5.1,8.8,10.4
		C388.2,462,384.8,466,379.4,466z"/>
	<path fill="#B30838" d="M412.3,463l-5.1-6.6c2.9-0.7,5.6-3.2,5.6-6.4c0-3.3-2.6-5.8-7.3-5.8h-8.4v0.1c1.8,0.7,1.5,3.3,1.5,5V463
		c0,1.6,0.2,4.3-1.5,5v0.1h6.7v-0.1c-1.8-0.6-1.6-3.3-1.6-5v-16.2c0.8-0.1,1.6-0.3,2.4-0.3c2.4-0.1,4.5,1.4,4.5,4
		c0,3.4-3.3,4.8-6.1,5.2l3.2,5.1l4.3,5.5c1.1,1.3,2.2,1.8,4.1,1.8h3.2C416,466.7,413.8,464.8,412.3,463z"/>
	<path fill="#B30838" d="M430.1,465.4l-4.5-0.4v-8.6h2.6c1.1,0,2.6,0,3.1,1h0.1v-3.8h-0.1c-0.4,0.2-1,0.2-1.5,0.2h-4.2v-6.7
		c1.1-0.2,2.4-0.3,3.6-0.3c1.6,0,3.1,0.1,4.1,1.5h0.1V444h-0.1c-0.5,0.3-1.1,0.2-1.7,0.2h-11.2v0.1c1.8,0.7,1.6,3.3,1.6,5V463
		c0,1.6,0.2,4.3-1.6,5v0.1h14.6l1.6-4.7h-0.1C434.9,464.9,432.5,465.6,430.1,465.4z"/>
	<path fill="#B30838" d="M413.3,427.6c0-0.4-0.1-0.8-0.1-1.2h15.1v-35.5h-17c0-0.6,0-1.1,0-1.6h18.6v37.1h0.4h2.7H445
		c0-0.1,0-0.3,0-0.4v-12.8c0-1.2,0.8-2.1,1.8-2.1h1.9v-6.1h1.9v6.1h1.9v-6.1h1.9v6.1h1.9c1,0,1.8,1,1.8,2.1V426c0,0.1,0,0.3,0,0.4
		h15.2v-62.2h-3.1v13.5l-10.2-10.2h-17.6l-9.6,9.6v-12.9h-3.1v12.3h-18.6c0-0.8,0.1-1.4,0.1-1.7c0.3-2,1.6-5,3-8.2
		c0.7-1.7,1.5-3.4,2.2-5.2c1.6,1.1,3.6,1.8,5.9,1.9c3.2,0.1,6.1-1.1,7.9-3c2.9,1,5.9,0.7,8.1-0.5c-0.2-1.1-0.7-2.2-1.5-3.3
		c2.3,0.4,4.5,0,6.3-1c-0.4-2-1.6-3.9-3.4-5.3c2.9-0.1,5.5-1.4,7.2-3.2c-0.9-1.5-2.4-2.7-4.1-3.5c1.5-1.4,2.5-3.2,2.8-5
		c-2.5-1.3-5.7-1.4-8.8,0c-0.2,0.1-0.4,0.2-0.6,0.3c0.4-0.7,0.8-1.4,1.1-2.2c1.3-3.4,0.9-7-0.8-9.5c-2.2,0.7-4.1,2.4-5.4,4.7
		c0.1-0.5,0.1-0.9,0.1-1.4c0-3.7-1.7-6.9-4.2-8.5c-1.6,1.3-2.8,3.4-3.3,5.8c-0.8,0.5-1.6,1.2-2.2,2c-0.2,0-0.5,0-0.7,0
		c1-1.6,1.6-3.6,1.6-5.8c0-3.7-1.7-6.9-4.2-8.5c-1.4,1.1-2.4,2.7-3,4.6c-0.2-0.2-0.3-0.4-0.5-0.6c-1.9-2.2-4.3-3.4-6.7-3.7
		c-1.7-1.1-3.6-1.6-5.4-1.6c-0.4,1.6-0.4,3.3,0.1,5c-0.7-1-1.5-1.8-2.4-2.4c-2.1,1.8-3.5,4.7-3.5,8c0,1.4,0.2,2.7,0.7,3.9
		c-0.2,0.3-0.5,0.6-0.7,1c-0.3-0.4-0.6-0.8-0.9-1.2c-1.5-1.7-3.3-2.8-5.1-3.3c0.6-1.8,0.7-3.7,0.3-5.4c-2.8-0.1-5.7,1.2-7.9,3.8
		c-0.3,0.3-0.5,0.6-0.7,0.9c-0.2-1.3-0.6-2.5-1.2-3.5c0.2,0,0.5-0.1,0.7-0.1c3.6-0.8,6.3-3.2,7.4-6c-2.2-1.7-5.4-2.4-8.6-1.6
		c-2.2,0.5-4,1.6-5.4,2.9c-0.9-1.4-2.1-2.5-3.4-3.2c-0.3,0.3-0.5,0.6-0.8,0.9c0,0,0,0,0,0c-0.5,0-1.1,0-1.6,0.1
		c-0.3-3.2-1.9-5.8-4.1-7.3c-1.7,1.4-3,3.7-3.4,6.3c-0.2-0.5-0.4-0.9-0.6-1.4c-1.5-3-4.1-5-6.7-5.6c-1.5,2.6-1.6,6.2,0.1,9.5
		c0,0,0,0,0,0.1c-2-1.6-4.3-2.5-6.6-2.4c-0.5,1.8-0.4,3.8,0.4,5.8c-2.1-2-4.7-3-7.1-2.9c-0.7,2.4-0.2,5.3,1.4,7.8
		c-0.2-0.1-0.3-0.2-0.5-0.2c-3-1.4-6.3-1.3-8.8-0.1c0.5,3,2.7,5.8,6.1,7.3c2.5,1.1,5.1,1.3,7.3,0.6c0.1,0.5,0.2,1,0.4,1.5
		c-0.4-0.1-0.9-0.2-1.3-0.2c-1.4-0.7-2.9-1.1-4.6-1.2c-3.3-0.1-6.3,1.2-8.1,3.2c1.6,2.5,4.7,4.4,8.4,4.5c1.4,0,2.8-0.2,4-0.6
		c0.2,0.6,0.6,1.2,0.9,1.8c-1.4-0.1-2.7,0.1-3.9,0.6c0.2,3,2.2,6,5.4,7.8c0.9,0.5,1.7,0.8,2.6,1.1c-3.1-0.2-5.9,0.7-7.8,2.5
		c1.3,2.7,4.3,4.8,7.9,5.2c2.8,0.4,5.4-0.3,7.4-1.6c1.9,5.1,3.9,11.3,4.1,15.2c0.1,1.2,0.1,3.1,0.2,5.4h-15.6l-1.1-2.7H346h-4.6
		h-1.6l-1.6-1.6v-8.5h-59.6v8.2l-1.9,1.9h-6.1l-1.1,2.7h-15.6c0.1-2.4,0.2-4.3,0.2-5.4c0.2-3.9,2.2-10.2,4.1-15.2
		c2,1.3,4.6,2,7.4,1.6c3.6-0.5,6.6-2.5,7.9-5.2c-1.9-1.8-4.7-2.7-7.8-2.5c0.9-0.2,1.8-0.6,2.6-1.1c3.2-1.8,5.2-4.8,5.4-7.8
		c-1.2-0.5-2.5-0.6-3.9-0.6c0.4-0.6,0.7-1.2,0.9-1.8c1.2,0.4,2.6,0.6,4,0.6c3.7-0.1,6.8-1.9,8.4-4.5c-1.8-2.1-4.8-3.4-8.1-3.2
		c-1.7,0.1-3.3,0.5-4.6,1.2c-0.4,0-0.9,0.1-1.3,0.2c0.2-0.5,0.3-1,0.4-1.5c2.2,0.6,4.9,0.5,7.3-0.6c3.4-1.5,5.6-4.4,6.1-7.3
		c-2.5-1.2-5.7-1.3-8.8,0.1c-0.2,0.1-0.3,0.2-0.5,0.2c1.6-2.5,2.1-5.4,1.4-7.8c-2.4-0.1-5,0.9-7.1,2.9c0.7-1.9,0.9-4,0.4-5.8
		c-2.2-0.1-4.6,0.8-6.6,2.4c0,0,0,0,0-0.1c1.6-3.3,1.6-6.9,0.1-9.5c-2.7,0.6-5.2,2.6-6.7,5.6c-0.2,0.5-0.4,0.9-0.6,1.4
		c-0.4-2.6-1.6-4.8-3.4-6.3c-2.2,1.5-3.8,4.2-4.1,7.3c-0.5-0.1-1.1-0.1-1.6-0.1c0,0,0,0,0,0c-0.2-0.3-0.5-0.6-0.8-0.9
		c-1.3,0.7-2.5,1.8-3.4,3.2c-1.4-1.4-3.2-2.4-5.4-2.9c-3.2-0.7-6.4,0-8.6,1.6c1.1,2.8,3.8,5.2,7.4,6c0.2,0.1,0.5,0.1,0.7,0.1
		c-0.6,1-1.1,2.2-1.2,3.5c-0.2-0.3-0.5-0.6-0.7-0.9c-2.2-2.5-5.2-3.8-7.9-3.8c-0.5,1.7-0.4,3.6,0.3,5.4c-1.9,0.6-3.6,1.7-5.1,3.3
		c-0.3,0.4-0.6,0.8-0.9,1.2c-0.2-0.3-0.4-0.7-0.7-1c0.4-1.2,0.7-2.5,0.7-3.9c0-3.3-1.4-6.3-3.5-8c-0.9,0.6-1.7,1.4-2.4,2.4
		c0.5-1.7,0.6-3.5,0.1-5c-1.8,0-3.7,0.5-5.4,1.6c-2.4,0.3-4.9,1.5-6.7,3.7c-0.2,0.2-0.3,0.4-0.5,0.6c-0.6-1.9-1.6-3.5-3-4.6
		c-2.5,1.7-4.2,4.9-4.2,8.5c0,2.2,0.6,4.2,1.6,5.8c-0.2,0-0.5,0-0.7,0c-0.7-0.8-1.4-1.5-2.2-2c-0.5-2.4-1.7-4.4-3.3-5.8
		c-2.5,1.7-4.2,4.9-4.2,8.5c0,0.5,0,0.9,0.1,1.4c-1.3-2.3-3.3-4-5.4-4.7c-1.7,2.4-2.2,6-0.8,9.5c0.3,0.8,0.7,1.5,1.1,2.2
		c-0.2-0.1-0.4-0.2-0.6-0.3c-3.1-1.3-6.3-1.2-8.8,0c0.3,1.8,1.3,3.6,2.8,5c-1.8,0.8-3.2,2-4.1,3.5c1.6,1.9,4.2,3.1,7.2,3.2
		c-1.8,1.5-3,3.3-3.4,5.3c1.8,1,4,1.3,6.3,1c-0.7,1-1.2,2.1-1.5,3.3c2.3,1.2,5.2,1.5,8.1,0.5c1.8,1.9,4.7,3.2,7.9,3
		c2.2-0.1,4.3-0.8,5.9-1.9c0.7,1.8,1.5,3.6,2.2,5.2c1.4,3.2,2.7,6.2,3,8.2c0.1,0.4,0.1,1,0.1,1.7h-18.6v-12.3h-3.1v12.9l-9.6-9.6
		h-17.6l-10.2,10.2v-13.5h-3.1v62.2h15.2c0-0.1,0-0.3,0-0.4v-12.8c0-1.2,0.8-2.1,1.8-2.1h1.9v-6.1h1.9v6.1h1.9v-6.1h1.9v6.1h1.9
		c1,0,1.8,1,1.8,2.1V426c0,0.1,0,0.3,0,0.4h12.1h2.7h0.4v-37.1h18.6c0,0.5,0,1.1,0,1.6h-17v35.5h15.1c0,0.4-0.1,0.8-0.1,1.2H143v1.5
		l62.5,0c0.2-1.4,0.4-3.4,0.6-6l0,0c0-0.6,0.1-1.2,0.1-1.8c0,0,0,0,0,0c0-0.3,0-0.6,0.1-1v0c0.3-3.6,0.5-7.9,0.7-12.3
		c0-0.1,0-0.2,0-0.3c0-0.3,0-0.6,0-0.9c0-0.1,0-0.2,0-0.3c0-0.3,0-0.6,0-0.9c0-0.1,0-0.3,0-0.4c0-0.3,0-0.5,0-0.8c0-0.2,0-0.3,0-0.5
		c0-0.2,0-0.5,0-0.7c0-0.2,0-0.3,0-0.5c0-0.3,0-0.5,0-0.8c0-0.1,0-0.3,0-0.4c0-0.2,0-0.5,0-0.7c0-0.2,0-0.4,0-0.5c0-0.2,0-0.4,0-0.6
		c0-0.2,0-0.4,0-0.5c0-0.2,0-0.4,0-0.7c0-0.2,0-0.4,0-0.6c0-0.2,0-0.4,0-0.6c0-0.2,0-0.4,0-0.6c0-0.2,0-0.4,0-0.6c0-0.2,0-0.4,0-0.6
		c0-0.2,0-0.4,0-0.6c0-0.2,0-0.4,0-0.6c0-0.2,0-0.4,0-0.6c0-0.2,0-0.4,0-0.6c0-0.2,0-0.4,0-0.5c0-0.2,0-0.4,0-0.6c0-0.1,0-0.3,0-0.4
		c0-0.2,0-0.4,0-0.7c0-0.6,0-1.1,0-1.6c0,0,0,0,0-0.1c0-0.4,0-0.9,0-1.3c0,0,0,0,0,0c0.1-4,0.1-7.6,0-10.1c0,0,0,0,0,0
		c0-0.2,0-0.4,0-0.7c0,0,0,0,0,0c0-0.2,0-0.4,0-0.6c0,0,0,0,0,0c0-0.9-0.1-1.6-0.2-2.1c-1.2-6.9-10.4-20-7.7-30.1
		c0.6-2.1,1.2-3.6,1.2-3.6s-1,14.4,7.9,23.4c0,0,3.6-19.4,9.4-22.8c0,0-7.2,13.1-7,46.7c0,0,0,0,0,0c0,1,0,2,0,3c0,0.2,0,0.4,0,0.6
		c0,0.6,0,1.2,0,1.8c0,0.1,0,0.3,0,0.4c0,0.4,0,0.9,0,1.3c0,0.2,0,0.4,0,0.6c0,0.4,0,0.7,0,1.1c0,0.2,0,0.5,0,0.7c0,0.3,0,0.6,0,0.9
		c0,0.2,0,0.4,0,0.6c0,0.3,0,0.7,0,1c0,0.2,0,0.4,0,0.5c0,0.3,0,0.6,0,0.9c0,0.2,0,0.4,0,0.6c0,0.3,0,0.6,0,0.9c0,0.2,0,0.3,0,0.5
		c0,0.3,0,0.7,0,1c0,0.1,0,0.3,0,0.4c0,0.3,0,0.7,0,1c0,0.1,0,0.2,0,0.3c0,0.3,0,0.7,0,1c0,0.1,0,0.2,0,0.3c0,0.4,0,0.7,0,1.1
		c0,0.1,0,0.1,0,0.2c0,0.8,0.1,1.7,0.1,2.4c0,0,0,0,0,0.1c0,0.4,0,0.7,0,1c0,0.1,0,0.2,0,0.3c0,0.3,0,0.6,0,0.9c0,0.1,0,0.1,0,0.2
		c0,0.3,0,0.6,0,0.8c0,0.1,0,0.2,0,0.3c0,0.2,0,0.5,0,0.7c0,0.1,0,0.2,0,0.4c0,0.2,0,0.4,0,0.6c0,0.1,0,0.2,0,0.3c0,0.2,0,0.4,0,0.6
		c0,0.1,0,0.2,0,0.2c0,0.2,0,0.4,0,0.6c0,0.1,0,0.2,0,0.2c0,0.2,0,0.4,0,0.6c0,0.1,0,0.2,0,0.3c0,0.2,0,0.4,0,0.7c0,0,0,0.1,0,0.1
		c0,1.1,0.1,2,0.1,2.9c0,0,0,0,0,0.1c0,0.2,0,0.4,0,0.6c0,0,0,0.1,0,0.1c0,0.2,0,0.3,0,0.5c0,0,0,0.1,0,0.1c0,0.2,0,0.3,0,0.4
		c0,0,0,0.1,0,0.1c0,0.1,0,0.3,0,0.4c0,0,0,0.1,0,0.1c0,0.1,0,0.2,0,0.4c0,0,0,0.1,0,0.1c0,0.1,0,0.2,0,0.4c0,0,0,0,0,0.1
		c0.1,1.2,0.2,2.1,0.2,2.8l30.4-0.1c0,0.8-0.1,1.6-0.1,2.5l-0.1,3h12.2l-0.6-2.3c-0.2-0.7-0.4-1.8-0.5-3.2h108.6
		c-0.1,1.4-0.3,2.5-0.5,3.2l-0.6,2.3h12.2l-0.1-3c0-0.8-0.1-1.7-0.1-2.5l30.4,0c0.1-0.7,0.1-1.6,0.2-2.7c0,0,0,0,0-0.1
		c0-0.1,0-0.2,0-0.4c0-0.1,0-0.1,0-0.1c0-0.1,0-0.2,0-0.4c0,0,0-0.1,0-0.1c0-0.1,0-0.3,0-0.4c0,0,0-0.1,0-0.1c0-0.1,0-0.3,0-0.4
		c0,0,0-0.1,0-0.1c0-0.2,0-0.3,0-0.5c0,0,0-0.1,0-0.1c0-0.2,0-0.4,0-0.6c0,0,0,0,0-0.1c0-0.9,0.1-1.8,0.1-2.9c0,0,0-0.1,0-0.1
		c0-0.2,0-0.4,0-0.7c0-0.1,0-0.2,0-0.3c0-0.2,0-0.4,0-0.6c0-0.1,0-0.2,0-0.2c0-0.2,0-0.4,0-0.6c0-0.1,0-0.2,0-0.2c0-0.2,0-0.4,0-0.6
		c0-0.1,0-0.2,0-0.3c0-0.2,0-0.4,0-0.6c0-0.1,0-0.2,0-0.4c0-0.2,0-0.5,0-0.7c0-0.1,0-0.2,0-0.3c0-0.3,0-0.6,0-0.8c0-0.1,0-0.1,0-0.2
		c0-0.3,0-0.6,0-0.9c0-0.1,0-0.2,0-0.3c0-0.3,0-0.7,0-1c0,0,0,0,0-0.1c0-0.8,0.1-1.6,0.1-2.4c0-0.1,0-0.1,0-0.2c0-0.4,0-0.7,0-1.1
		c0-0.1,0-0.2,0-0.3c0-0.3,0-0.7,0-1c0-0.1,0-0.2,0-0.3c0-0.3,0-0.7,0-1c0-0.1,0-0.3,0-0.4c0-0.3,0-0.6,0-1c0-0.2,0-0.3,0-0.5
		c0-0.3,0-0.6,0-0.9c0-0.2,0-0.4,0-0.6c0-0.3,0-0.6,0-0.9c0-0.2,0-0.4,0-0.5c0-0.3,0-0.7,0-1c0-0.2,0-0.4,0-0.6c0-0.3,0-0.6,0-0.9
		c0-0.2,0-0.5,0-0.7c0-0.3,0-0.7,0-1.1c0-0.2,0-0.4,0-0.6c0-0.4,0-0.9,0-1.3c0-0.1,0-0.2,0-0.4c0-0.6,0-1.2,0-1.8c0-0.2,0-0.4,0-0.6
		c0-1,0-2,0-3c0,0,0,0,0,0c0.2-33.6-7-46.7-7-46.7c5.8,3.5,9.4,22.8,9.4,22.8c8.8-9,7.9-23.4,7.9-23.4s0.6,1.5,1.2,3.6
		c2.8,10.1-6.5,23.2-7.7,30.1c-0.1,0.5-0.1,1.2-0.2,2.1c0,0,0,0,0,0c0,0.2,0,0.4,0,0.6c0,0,0,0,0,0c0,0.2,0,0.4,0,0.7c0,0,0,0,0,0
		c-0.1,2.5,0,6,0,10.1c0,0,0,0,0,0c0,0.4,0,0.8,0,1.3c0,0,0,0,0,0.1c0,0.5,0,1.1,0,1.6c0,0.2,0,0.4,0,0.7c0,0.1,0,0.3,0,0.4
		c0,0.2,0,0.4,0,0.6c0,0.2,0,0.4,0,0.5c0,0.2,0,0.4,0,0.6c0,0.2,0,0.4,0,0.6c0,0.2,0,0.4,0,0.6c0,0.2,0,0.4,0,0.6c0,0.2,0,0.4,0,0.6
		c0,0.2,0,0.4,0,0.6c0,0.2,0,0.4,0,0.6c0,0.2,0,0.4,0,0.6c0,0.2,0,0.4,0,0.6c0,0.2,0,0.4,0,0.7c0,0.2,0,0.4,0,0.5c0,0.2,0,0.4,0,0.6
		c0,0.2,0,0.4,0,0.5c0,0.2,0,0.5,0,0.7c0,0.1,0,0.3,0,0.4c0,0.3,0,0.5,0,0.8c0,0.2,0,0.3,0,0.5c0,0.2,0,0.5,0,0.7c0,0.2,0,0.3,0,0.5
		c0,0.3,0,0.5,0,0.8c0,0.1,0,0.3,0,0.4c0,0.3,0,0.6,0,0.9c0,0.1,0,0.2,0,0.3c0,0.3,0,0.6,0,0.9c0,0.1,0,0.2,0,0.3
		c0.2,4.5,0.5,8.7,0.7,12.3l0,0c0,0.3,0,0.6,0.1,1c0,0,0,0,0,0c0,0.6,0.1,1.3,0.1,1.8l0,0c0.2,2.5,0.4,4.5,0.6,5.9l62.5,0v-1.5
		L413.3,427.6L413.3,427.6z M441.7,422.9h-3.5v-6.7h3.5V422.9z M441.7,411.7h-3.5V405h3.5V411.7z M441.7,400.4h-3.5v-6.7h3.5V400.4z
		 M442.6,382v7.8h-5.3V382c0-0.1,0-0.2,0-0.4c0,0,0-0.1,0-0.1l2.5-2.5c0,0,0.1,0,0.1,0c0,0,0,0,0.1,0l2.6,2.6c0,0,0,0,0,0.1
		C442.7,381.7,442.6,381.9,442.6,382z M450.6,400.4h-1.9v-6.5h1.9V400.4z M454.5,400.4h-1.9v-6.5h1.9V400.4z M464.9,422.9h-3.5v-6.7
		h3.5V422.9z M464.9,411.7h-3.5V405h3.5V411.7z M464.9,400.4h-3.5v-6.7h3.5V400.4z M465.9,382v7.8h-5.3V382c0-0.1,0-0.2,0-0.4
		c0,0,0-0.1,0-0.1l2.5-2.5c0,0,0.1,0,0.1,0c0,0,0,0,0.1,0l2.6,2.6c0,0,0,0,0,0.1C465.9,381.7,465.9,381.9,465.9,382z M456.5,381.8
		l-1.1,0.8v7.2H448v-7.2l-1.1-0.8l4.8-4.8L456.5,381.8z M432,347.5c0,0,0.1,0.1,0.1,0.1c-0.1,0-0.2,0-0.3,0
		C431.9,347.5,431.9,347.5,432,347.5z M425.4,352c0.7-1,1.1-2,1.4-3c0.4,0,0.9-0.1,1.3-0.2c0.3,1.1,0.7,2.1,1.4,3
		C428.1,351.7,426.7,351.7,425.4,352z M426.3,337c0.5,0.5,1,0.9,1.5,1.3c0.8-0.6,1.5-1.4,2-2.4c-0.2,1.5-0.1,2.9,0.3,4.2
		c-0.7,0.2-1.3,0.4-2,0.6c-1.4,0.6-2.6,1.4-3.6,2.4c0-1.1-0.2-2.2-0.5-3.2C424.9,339.2,425.7,338.2,426.3,337z M423.7,354.1
		c0.2,0.6,0.5,1.2,0.9,1.8c-0.8-0.2-1.6-0.3-2.5-0.4c-0.1,0-0.2,0-0.3,0C422.4,355.1,423.1,354.6,423.7,354.1z M184.5,347.5
		c0,0,0.1-0.1,0.1-0.1c0.1,0,0.1,0.1,0.2,0.1C184.7,347.6,184.6,347.5,184.5,347.5z M186.9,336c0.5,0.9,1.2,1.7,2,2.4
		c0.5-0.4,1-0.8,1.5-1.3c0.6,1.2,1.4,2.2,2.3,3c-0.3,1-0.5,2.1-0.5,3.2c-1-1-2.2-1.8-3.6-2.4c-0.7-0.3-1.3-0.5-2-0.6
		C186.9,338.9,187.1,337.4,186.9,336z M187.1,351.9c0.7-0.9,1.1-2,1.4-3c0.4,0.1,0.9,0.1,1.3,0.2c0.3,1,0.8,2.1,1.4,3
		C189.9,351.7,188.5,351.7,187.1,351.9z M194.5,355.5c-0.9,0-1.7,0.2-2.5,0.4c0.4-0.6,0.7-1.1,0.9-1.8c0.6,0.5,1.2,1,1.9,1.4
		C194.8,355.5,194.6,355.5,194.5,355.5z M155.2,422.9h-3.5v-6.7h3.5V422.9z M155.2,411.7h-3.5V405h3.5V411.7z M155.2,400.4h-3.5
		v-6.7h3.5V400.4z M156.1,382v7.8h-5.3V382c0-0.1,0-0.2,0-0.4c0-0.1,0-0.1,0-0.2l2.5-2.5c0.1,0,0.1,0,0.2,0c0,0,0,0,0,0l2.6,2.6
		c0,0,0,0,0,0C156.1,381.7,156.1,381.9,156.1,382z M164.1,400.4h-1.9v-6.5h1.9V400.4z M167.9,400.4H166v-6.5h1.9V400.4z
		 M168.8,382.5v7.2h-7.4v-7.2l-1.1-0.8l4.8-4.8l4.8,4.8L168.8,382.5z M178.4,422.9h-3.5v-6.7h3.5V422.9z M178.4,411.7h-3.5V405h3.5
		V411.7z M178.4,400.4h-3.5v-6.7h3.5V400.4z M179.3,382v7.8H174V382c0-0.1,0-0.2,0-0.4c0-0.1,0-0.1,0-0.2l2.5-2.5c0.1,0,0.1,0,0.2,0
		c0,0,0,0,0,0l2.6,2.6c0,0,0,0,0,0C179.3,381.7,179.3,381.9,179.3,382z M195,423h-3.5v-6.7h3.5V423z M195,411.8h-3.5v-6.7h3.5V411.8
		z M195,400.5h-3.5v-6.7h3.5V400.5z M203.7,423h-3.5v-6.7h3.5V423z M203.7,411.8h-3.5v-6.7h3.5V411.8z M203.7,400.5h-3.5v-6.7h3.5
		V400.5z M194.5,384v3.8h-7.7v-10.1h10.5l-4,5.5L194.5,384z M205.5,387.9h-4.8V384l1.1-0.8l-4-5.5h7.7
		C205.6,380.2,205.5,383.8,205.5,387.9z M199.2,330.5c0.6-0.6,1.1-1.3,1.5-2.1c0.9-0.1,1.9-0.4,2.8-0.8c-0.4,0.9-0.6,1.9-0.7,3
		c-0.1,0.9-0.1,1.8,0,2.7C201.8,332,200.5,331.1,199.2,330.5z M207.7,358.6c-0.5-0.8-0.9-1.7-1.3-2.5c1.6-1.8,2.6-4.3,2.6-7.1
		c0-0.3,0-0.6,0-0.9c0.4,0.7,0.8,1.4,1.3,2C209.2,353.1,208.4,356.1,207.7,358.6z M214.9,339c-0.6-1.8-1.6-3.3-2.9-4.4
		c-2.5,1.7-4.2,4.9-4.2,8.5c0,0.3,0,0.6,0,0.9c-0.6-1.2-1.4-2.2-2.3-3c0.1-0.7,0-1.5-0.1-2.2c2.6-1.4,4.6-4.4,5-8
		c0.2-2.1-0.2-4.1-1-5.8c0.7-0.5,1.4-1.1,2-1.8c0.4-0.4,0.7-0.9,1-1.4c-0.2,0.8-0.4,1.6-0.5,2.5c-0.5-0.1-0.9-0.1-1.4-0.1
		c-0.8,2.9,0,6.4,2.5,9.2c0.9,1,1.9,1.8,2.9,2.4C215.5,336.7,215.1,337.8,214.9,339z M388.1,329.3c0.4,1.5,1.2,3.1,2.4,4.4
		c0.6,0.7,1.2,1.2,1.9,1.7c-0.4,0.9-0.7,1.9-0.9,2.9c-0.8-0.8-1.7-1.5-2.6-2c0.5-2.5,0.1-4.9-1-6.8
		C388,329.5,388.1,329.4,388.1,329.3z M391.1,358.4c-1.6-0.2-3.2,0-4.6,0.5c0.8-1.2,1.3-2.5,1.5-3.9c0.4,0.6,0.9,1.3,1.4,1.9
		C390.1,357.4,390.6,357.9,391.1,358.4z M384.5,352.6c0.7-0.5,1.3-1.1,1.8-1.8c0.2,1,0.6,1.9,1.1,2.9c-1.7-0.4-3.7-0.2-5.6,0.5
		C382.7,353.8,383.6,353.3,384.5,352.6z M380.8,332.5c0.7,0,1.4-0.1,2.2-0.2c-0.7,0.8-1.2,1.8-1.6,2.9c-0.4,0.9-0.6,1.9-0.7,2.8
		c-0.7,0.3-1.3,0.6-2,1c0-0.3,0-0.5,0-0.8c0-1.2-0.2-2.4-0.5-3.5c1-0.7,1.8-1.6,2.5-2.7C380.7,332.2,380.7,332.3,380.8,332.5z
		 M381.3,354.4c-0.6,0.3-1.2,0.6-1.8,0.9c-1.3,0.8-2.4,1.9-3.2,3.1c0.3-1.1,0.6-2.3,1-3.4C378.6,355.1,380,354.9,381.3,354.4z
		 M379.7,320.9c-1,0.5-1.9,1.2-2.7,2.1c0.1-0.7,0.1-1.5,0-2.3c0,0,0-0.1,0-0.1C377.9,320.8,378.8,320.9,379.7,320.9z M374,345.2
		c-0.1,0.5-0.2,1.1-0.3,1.6c-0.9,1.2-1.7,2.7-2.6,4.6c-0.6-2.2-1.4-4.6-2.4-6.6c1.2-0.5,2.3-1.3,3.3-2.3
		C372.6,343.6,373.2,344.5,374,345.2z M368.7,322.8c0.3-0.3,0.5-0.6,0.7-0.9c0.4,2.3,1.5,4.3,2.9,5.7c-1.2,0.5-2.4,1.2-3.5,2.1
		c-0.2-1.2-0.5-2.3-1.1-3.5c-0.3-0.6-0.7-1.2-1-1.7C367.5,324.1,368.1,323.5,368.7,322.8z M362.6,318.1c0,0,0,0.1,0,0.1
		c0,0-0.1,0.1-0.1,0.1C362.5,318.2,362.6,318.2,362.6,318.1z M361.8,336.1l0.1,0.5c-0.3,1-0.4,2-0.4,3.1c0,1.1,0.2,2.2,0.5,3.2
		c-1.3-0.6-2.6-0.8-3.9-0.8c-0.2,0.6-0.3,1.3-0.3,2l-1.5-0.9c0-0.7-0.1-1.4-0.2-2.1c1.2,0.5,2.4,0.8,3.6,0.8c0.4-1.8,0.1-3.9-0.8-6
		C359.7,336.2,360.8,336.3,361.8,336.1z M361.2,320.7C361.2,320.7,361.2,320.7,361.2,320.7c-0.1,0-0.1,0-0.2,0
		c-0.2,0.4-0.4,0.9-0.6,1.4c-0.2-0.1-0.5-0.2-0.7-0.2c-0.3,0.5-0.5,1.1-0.7,1.7c0-1.5-0.4-3.1-1.1-4.6
		C358.9,319.8,360,320.4,361.2,320.7z M352.3,326.4c0-1.2-0.2-2.4-0.7-3.5c2.1,1.9,4.6,2.9,7,2.9c0,0.7,0,1.5,0.1,2.2
		c-0.1-0.1-0.2-0.1-0.3-0.2C356.4,326.7,354.3,326.2,352.3,326.4z M353.2,350c1,0.1,2.1,0,3-0.3c0.3,0.6,0.5,1.4,0.9,2.2
		C356,351.1,354.7,350.4,353.2,350z M362.9,377.8c0.1,2.9,0.2,6.3,0.3,10.1h-3V384l1.1-0.8l-4-5.5L362.9,377.8L362.9,377.8z
		 M356.9,377.8l-4,5.5l1.1,0.8v3.8h-2.2l-4.1-10.1L356.9,377.8L356.9,377.8z M340.8,380h3.5v6.7h-3.5V380z M280.7,365.1h55.4v14.2
		h-3v-8.8h-5.4v8.8h-5.6v-8.8h-5.4v8.8h-5.6v-8.8h-2h-3.4h-0.3v0.1l0.3,0v8.7h-5.6v-8.8h-5.4v8.8h-5.6v-8.8h-5.4v8.8h-3.1
		L280.7,365.1L280.7,365.1z M278.6,378.6v0.7h-0.1L278.6,378.6z M272.4,380h3.5v6.7h-3.5V380z M268.9,377.8l-4.1,10.1h-2.2V384
		l1.1-0.8l-4-5.5L268.9,377.8L268.9,377.8z M259.3,377.8l-4,5.5l1.1,0.8v3.8h-3c0.1-3.8,0.2-7.2,0.3-10.1L259.3,377.8L259.3,377.8z
		 M259.6,351.9c0.3-0.8,0.6-1.6,0.9-2.2c1,0.2,2,0.3,3,0.3C262,350.4,260.7,351.1,259.6,351.9z M265,322.9c-0.5,1.2-0.7,2.4-0.7,3.5
		c-2-0.2-4.2,0.3-6.2,1.4c-0.1,0.1-0.2,0.1-0.3,0.2c0.1-0.8,0.2-1.5,0.1-2.2C260.4,325.8,263,324.8,265,322.9z M258.8,318.9
		c-0.8,1.5-1.1,3.1-1.1,4.6c-0.2-0.6-0.4-1.2-0.7-1.7c-0.2,0.1-0.5,0.1-0.7,0.2c-0.2-0.5-0.4-0.9-0.6-1.4c0,0-0.1,0-0.2,0
		c0,0,0,0,0,0C256.6,320.4,257.8,319.8,258.8,318.9z M254.8,336.6l0.1-0.5c1,0.1,2,0.1,3.1-0.1c-0.9,2.1-1.2,4.2-0.8,6
		c1.2,0,2.4-0.3,3.6-0.8c-0.1,0.7-0.2,1.4-0.2,2.1l-1.5,0.9c0-0.7-0.1-1.4-0.3-2c-1.3,0-2.6,0.2-3.9,0.8c0.3-1,0.5-2.1,0.5-3.2
		C255.3,338.7,255.1,337.6,254.8,336.6z M254.1,318.1c0,0.1,0,0.1,0,0.2c0,0,0-0.1-0.1-0.1C254.1,318.2,254.1,318.1,254.1,318.1z
		 M247.2,321.9c0.2,0.3,0.4,0.6,0.7,0.9c0.6,0.7,1.3,1.3,2,1.8c-0.4,0.5-0.7,1.1-1,1.7c-0.6,1.1-0.9,2.3-1.1,3.5
		c-1.1-1-2.3-1.7-3.5-2.1C245.7,326.2,246.8,324.2,247.2,321.9z M244.6,342.5c1,1,2.1,1.8,3.3,2.3c-1,2-1.8,4.4-2.4,6.6
		c-0.9-1.9-1.7-3.4-2.6-4.6c0-0.5-0.1-1.1-0.3-1.6C243.4,344.5,244.1,343.6,244.6,342.5z M239.6,320.6c0,0,0,0.1,0,0.1
		c-0.1,0.8-0.1,1.5,0,2.3c-0.8-0.9-1.7-1.6-2.7-2.1C237.9,320.9,238.8,320.8,239.6,320.6z M235.9,332.5c0-0.2,0.1-0.3,0.1-0.5
		c0.7,1.1,1.6,2,2.5,2.7c-0.3,1.1-0.5,2.2-0.5,3.5c0,0.3,0,0.5,0,0.8c-0.6-0.4-1.3-0.8-2-1c-0.1-0.9-0.3-1.9-0.7-2.8
		c-0.4-1.1-1-2-1.6-2.9C234.4,332.4,235.2,332.5,235.9,332.5z M239.3,355c0.3,1.1,0.7,2.2,1,3.4c-0.8-1.2-1.9-2.2-3.2-3.1
		c-0.6-0.4-1.2-0.7-1.8-0.9C236.6,354.9,238,355.1,239.3,355z M230.3,350.9c0.5,0.6,1.1,1.2,1.8,1.8c0.9,0.7,1.8,1.2,2.7,1.6
		c-1.9-0.7-3.8-0.8-5.6-0.5C229.8,352.8,230.1,351.8,230.3,350.9z M230.1,358.8c-1.4-0.5-2.9-0.7-4.6-0.5c0.5-0.5,1.1-0.9,1.6-1.5
		c0.6-0.6,1-1.3,1.4-1.9C228.7,356.3,229.3,357.6,230.1,358.8z M226.1,333.7c1.2-1.3,2-2.9,2.4-4.4c0.1,0.1,0.2,0.2,0.3,0.3
		c-1.1,1.9-1.5,4.3-1,6.8c-0.9,0.5-1.8,1.2-2.6,2c-0.2-1-0.5-2-0.9-2.9C224.9,335,225.5,334.4,226.1,333.7z M217.8,349.6
		c1.4,0.7,3,1,4.7,1c-0.3,0.3-0.6,0.6-0.9,0.9c-2.8,3.1-4,7-3.4,10c0.3,0,0.5-0.1,0.8-0.1c-1.4,1.4-2.4,3-2.8,4.8
		c2.4,1.3,5.7,1.5,8.8,0.3c3.1-1.2,5.3-3.6,6.1-6.3c0.6,0.7,1.4,1.4,2.3,1.9c2.7,1.7,5.7,2.2,8.3,1.5c0.2,0.7,0.4,1.4,0.5,2l0.8,3.2
		c0.4,1.6,0.7,4.2,1,7.7h-12.5v-7.1h-4.8v7.1h-12.7C214.5,363.8,216.3,355.1,217.8,349.6z M244.2,387.2c0,0.2,0,0.4,0,0.6h-1.8V384
		l0.6-0.4l0,0l0.5-0.4l-3.9-5.4h4.4c0.1,1.6,0.1,3.4,0.2,5.3l-0.1-0.2C244.1,383.6,244.1,385.6,244.2,387.2z M236.3,384v3.8h-14.6
		V384l1.1-0.8l-4-5.5h20.3l-4,5.5L236.3,384z M213.7,383.3c-0.2-0.9,0.1-4.6,0.2-5.5h4.6l-3.9,5.4l1.1,0.9v3.8h-1.9
		C213.7,386.3,213.7,384.8,213.7,383.3z M243.3,427.6h-28.2c0-0.4-0.1-0.8-0.1-1.2h28.4C243.3,426.8,243.3,427.2,243.3,427.6z
		 M221.3,405.1v6.7h-3.5v-6.7H221.3z M217.9,400.5v-6.7h3.5v6.7H217.9z M221.3,416.3v6.7h-3.5v-6.7H221.3z M230.7,405.1v6.7h-3.5
		v-6.7H230.7z M227.3,400.5v-6.7h3.5v6.7H227.3z M230.7,416.3v6.7h-3.5v-6.7H230.7z M240.1,405.1v6.7h-3.5v-6.7H240.1z M236.7,400.5
		v-6.7h3.5v6.7H236.7z M240.1,416.3v6.7h-3.5v-6.7H240.1z M213.7,390.8c0-0.6,0-1.1,0-1.6h30.6c0,0.5,0,1.1,0,1.6H213.7z
		 M245.4,432.5c0-1,0.1-2.1,0.2-3.5c0,0,0-0.1,0-0.1c0-0.8,0.1-1.7,0.1-2.6c0-0.1,0-0.2,0-0.2c0-0.4,0-0.8,0.1-1.3
		c0-0.2,0-0.4,0-0.6c0-0.4,0-0.7,0-1.1c0-0.2,0-0.4,0-0.6c0-0.5,0-0.9,0.1-1.4c0-0.1,0-0.3,0-0.5c0-0.5,0-1.1,0.1-1.6
		c0-0.2,0-0.3,0-0.5c0-0.6,0-1.1,0.1-1.7c0-0.2,0-0.3,0-0.5c0-0.6,0-1.2,0.1-1.8c0-0.1,0-0.2,0-0.3c0-0.6,0-1.3,0.1-1.9
		c0-0.1,0-0.1,0-0.2c0-0.7,0-1.3,0.1-2c0-0.1,0-0.3,0-0.4c0-0.7,0-1.3,0.1-2c0-0.1,0-0.3,0-0.4c0-0.7,0-1.4,0.1-2.1
		c0-0.1,0-0.2,0-0.3c0-0.7,0-1.5,0.1-2.2c0,0,0-0.1,0-0.1c0-0.7,0-1.5,0-2.2c0-0.1,0-0.1,0-0.2c0-0.7,0-1.5,0-2.2c0-0.1,0-0.2,0-0.3
		c0-0.7,0-1.4,0-2.1c0-0.1,0-0.2,0-0.3c0-0.7,0-1.4,0-2.1c0-0.1,0-0.2,0-0.2c0-0.7,0-1.5,0-2.2l0,0c0-0.6,0-1.1,0-1.6
		c0,0,0-0.1,0-0.1c0-4.1-0.1-8-0.3-11.4c0,0,0,0,0,0c0-0.4,0-0.9-0.1-1.3c0,0,0,0,0,0c-0.2-3.5-0.5-6.4-1-8.2
		c-2.9-11.1-5.8-24-9.6-24.2c0,0,6-0.2,10.6,16.1c0,0,1.3-11.9,5.4-16.9c0,0-2.3,16.1-1.9,19.4c0,0,3.1-12.3,9.6-15.9
		c0,0-7.1,16.3-7.5,24.2c-0.1,1.3-0.2,3.6-0.2,6.6c0,0.1,0,0.2,0,0.3c-0.1,2.9-0.2,6.3-0.3,10.1c0,0,0,0,0,0
		c-0.1,5.3-0.2,11.3-0.2,17.2c0,0,0,0,0,0c0,0.8,0,1.6,0,2.4c0,0,0,0,0,0c0,0.8,0,1.5,0,2.3c0,0,0,0,0,0.1c0,0.8,0,1.5,0,2.3
		c0,0,0,0,0,0c0,0.8,0,1.5,0,2.2c0,0,0,0,0,0c0.1,5.1,0.2,9.6,0.5,13.1c0,0,0,0,0,0c0,0.5,0.1,1,0.1,1.5v0c0.1,1.4,0.3,2.6,0.5,3.5
		L245.4,432.5L245.4,432.5z M355,411.8v-6.7h3.5v6.7H355z M358.5,416.3v6.7H355v-6.7H358.5z M355,400.5v-6.7h3.5v6.7H355z
		 M351.7,390.8v35.5h11.2c0,0.4-0.1,0.8-0.1,1.2H318h-19.3h-44.8c0-0.4-0.1-0.8-0.1-1.2H265v-35.5h-11.5c0-0.6,0-1.1,0-1.6l24.9,0.1
		v-8.2l59.7,0v8.3l25-0.1c0,0.5,0,1.1,0,1.6H351.7z M261.6,405.1v6.7h-3.5v-6.7H261.6z M258.2,400.5v-6.7h3.5v6.7H258.2z
		 M261.6,416.3v6.7h-3.5v-6.7H261.6z M370.1,393c0,0.1,0,0.2,0,0.2c0,0.7,0,1.4,0,2.1c0,0.1,0,0.2,0,0.3c0,0.7,0,1.4,0,2.1
		c0,0.1,0,0.2,0,0.3c0,0.7,0,1.5,0,2.2c0,0.1,0,0.1,0,0.2c0,0.7,0,1.5,0,2.2c0,0,0,0.1,0,0.1c0,0.7,0,1.5,0,2.2c0,0.1,0,0.2,0,0.3
		c0,0.7,0,1.4,0.1,2.1c0,0.1,0,0.3,0,0.4c0,0.7,0,1.3,0.1,2c0,0.1,0,0.3,0,0.4c0,0.7,0,1.3,0.1,2c0,0.1,0,0.1,0,0.2
		c0,0.6,0,1.3,0.1,1.9c0,0.1,0,0.2,0,0.3c0,0.6,0,1.2,0.1,1.8c0,0.2,0,0.3,0,0.5c0,0.6,0,1.1,0.1,1.7c0,0.2,0,0.3,0,0.5
		c0,0.5,0,1.1,0.1,1.6c0,0.2,0,0.3,0,0.5c0,0.5,0,0.9,0.1,1.4c0,0.2,0,0.4,0,0.6c0,0.4,0,0.8,0,1.1c0,0.2,0,0.4,0,0.6
		c0,0.4,0,0.9,0.1,1.3c0,0.1,0,0.2,0,0.2c0,0.9,0.1,1.8,0.1,2.6c0,0,0,0.1,0,0.1c0.1,1.3,0.1,2.5,0.2,3.5h-6.8
		c0.2-0.9,0.4-2,0.5-3.5v0c0-0.5,0.1-0.9,0.1-1.5c0,0,0,0,0,0c0.3-3.5,0.4-8,0.5-13.1c0,0,0,0,0,0c0-0.7,0-1.5,0-2.2c0,0,0,0,0,0
		c0-0.8,0-1.5,0-2.3c0,0,0-0.1,0-0.1c0-0.8,0-1.5,0-2.3c0,0,0,0,0,0c0-0.8,0-1.6,0-2.4c0,0,0,0,0,0c0-5.9-0.1-11.8-0.2-17.2
		c0,0,0,0,0,0c-0.1-3.8-0.2-7.2-0.3-10.1c0-0.1,0-0.2,0-0.3c-0.1-3-0.2-5.3-0.2-6.6c-0.4-7.9-7.5-24.2-7.5-24.2
		c6.5,3.6,9.6,15.9,9.6,15.9c0.4-3.3-1.9-19.4-1.9-19.4c4,5,5.4,16.9,5.4,16.9C375.1,343.8,381,344,381,344
		c-3.8,0.2-6.7,13.1-9.6,24.2c-0.5,1.9-0.8,4.7-1,8.2c0,0,0,0,0,0c0,0.4-0.1,0.8-0.1,1.3c0,0,0,0,0,0c-0.2,3.4-0.3,7.2-0.3,11.4
		c0,0,0,0,0,0.1c0,0.5,0,1.1,0,1.6l0,0C370.1,391.6,370.1,392.3,370.1,393z M372.4,383.9c0-1.9,0.2-4.5,0.2-6.1h4.4l-4,5.4l1.1,0.9
		v3.8h-1.8C372.4,386.6,372.2,385.1,372.4,383.9z M401.6,427.6h-28.2c0-0.4,0-0.8-0.1-1.2h28.4C401.6,426.8,401.6,427.2,401.6,427.6
		z M380,405.1v6.7h-3.5v-6.7H380z M376.5,400.5v-6.7h3.5v6.7H376.5z M380,416.3v6.7h-3.5v-6.7H380z M389.4,405.1v6.7h-3.5v-6.7
		H389.4z M385.9,400.5v-6.7h3.5v6.7H385.9z M389.4,416.3v6.7h-3.5v-6.7H389.4z M398.8,405.1v6.7h-3.5v-6.7H398.8z M395.3,400.5v-6.7
		h3.5v6.7H395.3z M398.8,416.3v6.7h-3.5v-6.7H398.8z M402.9,390.8h-30.6c0-0.6,0-1.1,0-1.6h30.6
		C402.9,389.8,402.9,390.3,402.9,390.8z M394.9,384v3.8h-14.6V384l1.1-0.8l-4-5.5h20.3l-4,5.5L394.9,384z M403,387.9h-1.9V384
		l1.1-0.8l0,0l-3.9-5.4h4.6C403,379.9,403,385.4,403,387.9z M398.9,349.6c1.5,5.5,3.2,14.2,3.8,26.9H390v-7.1h-4.8v7.1h-12.5
		c0.2-3.5,0.5-6,1-7.7l0.8-3.2c0.2-0.6,0.3-1.3,0.5-2c2.6,0.7,5.6,0.2,8.3-1.5c0.9-0.6,1.6-1.2,2.3-1.9c0.8,2.6,3,5,6.1,6.3
		c3.1,1.2,6.3,1,8.8-0.3c-0.4-1.7-1.3-3.4-2.8-4.8c0.3,0,0.5,0.1,0.8,0.1c0.6-3-0.5-6.9-3.4-10c-0.3-0.3-0.6-0.6-0.9-0.9
		C395.9,350.6,397.5,350.3,398.9,349.6z M408.9,358.6c-0.6-2.5-1.5-5.5-2.5-8.5c0.5-0.6,1-1.3,1.3-2c0,0.3,0,0.6,0,0.9
		c0,2.8,1,5.4,2.6,7.1C409.9,357,409.4,357.8,408.9,358.6z M411.1,341c-0.9,0.8-1.7,1.8-2.3,3c0-0.3,0-0.6,0-0.9
		c0-3.7-1.7-6.9-4.2-8.5c-1.3,1.1-2.3,2.6-2.9,4.4c-0.2-1.2-0.6-2.3-1.1-3.3c1-0.6,2-1.4,2.9-2.4c2.4-2.8,3.2-6.3,2.5-9.2
		c-0.5,0-0.9,0-1.4,0.1c-0.1-0.9-0.2-1.7-0.5-2.5c0.3,0.5,0.6,0.9,1,1.4c0.6,0.7,1.3,1.3,2,1.8c-0.8,1.7-1.2,3.7-1,5.8
		c0.4,3.6,2.4,6.6,5,8C411,339.6,411,340.3,411.1,341z M413.8,333.2c0.1-0.9,0.1-1.8,0-2.7c-0.1-1.1-0.4-2-0.7-3
		c0.9,0.4,1.9,0.7,2.8,0.8c0.4,0.8,0.9,1.5,1.5,2.1C416.1,331.1,414.9,332,413.8,333.2z M429.8,377.8v10.1h-7.7V384l1.1-0.8l-4-5.5
		L429.8,377.8L429.8,377.8z M411.1,377.8h7.7l-4,5.5l1.1,0.8v3.8h-4.8C411.1,383.8,411.1,380.2,411.1,377.8z M421.6,393.8h3.5v6.7
		h-3.5V393.8z M421.6,405.1h3.5v6.7h-3.5V405.1z M421.6,416.3h3.5v6.7h-3.5V416.3z M413,393.8h3.5v6.7H413V393.8z M413,405.1h3.5
		v6.7H413V405.1z M413,416.3h3.5v6.7H413V416.3z"/>
	<polygon fill="#B30838" points="308.7,331.9 308.7,328.7 313.2,328.7 313.2,325 307.5,325 307.5,331.9 299.5,331.9 299.5,337.7 
		316.9,337.7 316.9,331.9 	"/>
	<rect x="276.7" y="360.9" fill="#B30838" width="63.2" height="1.5"/>
	<path fill="#B30838" d="M304.7,359.6V354l-1.4-0.8l5-6.6l5,6.6l-1.4,0.8v5.6h26.2c-0.3-0.7-0.5-1.3-0.8-1.9v-16.3h-5.4v8.3
		c-3.9-4.3-9-7.5-14.8-9.1v-1.6h-17.5v1.6c-5.8,1.6-10.9,4.8-14.8,9.1v-8.3h-5.4v16.3c-0.3,0.6-0.6,1.3-0.8,1.9H304.7z"/>
	<polygon fill="#B30838" points="339.3,382.3 276.1,382.3 276,383.7 339.2,383.7 	"/>
	<path fill="#B30838" d="M280.5,384.9V407h3.9v-5.9c0-0.1,0-0.2,0-0.3c0-0.1,0-0.2,0-0.2l1.9-1.9c0.1,0,0.2,0,0.2,0c0,0,0.1,0,0.1,0
		l2,2c0,0,0,0.1,0,0.1c0,0.1,0,0.2,0,0.3v5.9h6.6v-5.9c0-0.1,0-0.2,0-0.3c0-0.1,0-0.2,0-0.2l1.9-1.9c0.1,0,0.2,0,0.2,0
		c0,0,0.1,0,0.1,0l2,2c0,0,0,0.1,0,0.1c0,0.1,0,0.2,0,0.3v5.9h3.5l3.1-3.1v-2.8c0-0.1,0-0.2,0-0.3c0-0.1,0-0.2,0-0.2l1.9-1.9
		c0.1,0,0.2,0,0.2,0c0,0,0.1,0,0.1,0l2,2c0,0,0,0.1,0,0.1c0,0.1,0,0.2,0,0.3v2.7l3.2,3.2h3.4v-5.9c0-0.1,0-0.2,0-0.3
		c0-0.1,0-0.2,0-0.2l1.9-1.9c0.1,0,0.2,0,0.2,0c0,0,0.1,0,0.1,0l2,2c0,0,0,0.1,0,0.1c0,0.1,0,0.2,0,0.3v5.9h6.6v-5.9
		c0-0.1,0-0.2,0-0.3c0,0,0,0,0-0.1l2.1-2.1c0,0,0.1,0,0.1,0c0.1,0,0.2,0,0.3,0l1.9,1.9c0,0.1,0,0.2,0,0.3c0,0.1,0,0.2,0,0.3v5.9h3.9
		v-22.1H280.5z M286.5,387.1C286.5,387.1,286.5,387.1,286.5,387.1l2.2,2.2c0,0.1,0,0.2,0,0.3v5.6h-4.3v-5.6c0-0.1,0-0.2,0-0.3
		c0,0,0,0,0-0.1L286.5,387.1z M297.5,387.1C297.5,387.1,297.5,387.1,297.5,387.1l2.2,2.2c0,0.1,0,0.2,0,0.3v5.6h-4.3v-5.6
		c0-0.1,0-0.2,0-0.3c0,0,0,0,0-0.1L297.5,387.1z M308.4,387.1C308.4,387.1,308.4,387.1,308.4,387.1l2.2,2.2c0,0.1,0,0.2,0,0.3v5.6
		h-4.3v-5.6c0-0.1,0-0.2,0-0.3c0,0,0,0,0-0.1L308.4,387.1z M319.4,387.1C319.4,387.1,319.4,387.1,319.4,387.1l2.2,2.2
		c0,0.1,0,0.2,0,0.3v5.6h-4.3v-5.6c0-0.1,0-0.2,0-0.3c0,0,0,0,0-0.1L319.4,387.1z M330.4,387.1C330.5,387.1,330.5,387.1,330.4,387.1
		l2.1,2.1c0,0,0,0.1,0,0.1c0,0.1,0,0.2,0,0.3v5.6h-4.3v-5.6c0-0.1,0-0.1,0-0.2L330.4,387.1z"/>
</g>
</svg>
