<svg xmlns="http://www.w3.org/2000/svg" viewBox="88.3 248 439.3 288"><g fill="#B30838"><path d="M159.3 364.7c0 .9.7 1.6 1.6 1.6h8.4c.9 0 1.6-.7 1.6-1.6v-2.9h-11.6v2.9zM165 413.9c-2.1 0-3.8 1.7-3.8 3.8v8.6h7.6v-8.1-.5c.1-2.1-1.6-3.8-3.8-3.8zM301.7 408.5h-21.2v1.4h19.8M336.4 408.5h-21l1.3 1.4h19.7M283.8 412.2h6v13.2h-6zM294.6 412.2h6v13.2h-6zM327.1 412.2h5.9v13.2h-5.9zM311.6 425.1v-9.9-.5c0-1.9-1.5-3.4-3.4-3.4s-3.4 1.5-3.4 3.4v10.4h6.8zM316.5 412.2h5.9v13.2h-5.9zM268.9 416.3h2.1v6.7h-2.1zM268.9 405.1h2.1v6.7h-2.1zM268.9 393.8h2.1v6.7h-2.1zM272.8 416.3h2.1v6.7h-2.1zM272.8 405.1h2.1v6.7h-2.1zM272.8 393.8h2.1v6.7h-2.1zM276.6 416.3h2.1v6.7h-2.1zM276.6 405.1h2.1v6.7h-2.1zM276.6 393.8h2.1v6.7h-2.1zM457.4 364.7v-2.9h-11.6v2.9c0 .9.7 1.6 1.6 1.6h8.4c.9 0 1.6-.7 1.6-1.6zM451.6 413.9c-2.1 0-3.8 1.7-3.8 3.8v8.6h7.6v-8.1-.5c0-2.1-1.7-3.8-3.8-3.8zM345.6 416.3h2.1v6.7h-2.1zM345.6 405.1h2.1v6.7h-2.1zM345.6 393.8h2.1v6.7h-2.1zM341.8 416.3h2.1v6.7h-2.1zM341.8 405.1h2.1v6.7h-2.1zM341.8 393.8h2.1v6.7h-2.1zM337.9 416.3h2.1v6.7h-2.1zM337.9 405.1h2.1v6.7h-2.1zM337.9 393.8h2.1v6.7h-2.1z"/><path d="M492 337.1c-12.5-16.8-29.9-30.6-50.3-39.7-38.4-17.2-80.9-25.2-133.8-25.4-52.2-.1-94.7 7.9-133.7 25.4-20.4 9.2-37.8 22.8-50.3 39.6-13.3 17.9-20.3 38.4-20.3 59.4s7 41.6 20.3 59.5c12.5 16.8 29.9 30.6 50.3 39.7 38.4 17.2 80.9 25.2 133.8 25.4 52.2.1 94.7-7.9 133.7-25.4 20.4-9.2 37.8-22.8 50.3-39.6 13.3-17.9 20.3-38.4 20.3-59.4.1-21-7-41.6-20.3-59.5zm-1.8 117.6c-12.2 16.4-29.3 29.9-49.4 38.9-38.7 17.3-80.8 25.3-132.7 25.2-52.6-.1-94.8-8.1-132.9-25.2-20-9-37.1-22.5-49.4-39-13-17.5-19.9-37.6-19.9-58.2 0-20.5 6.9-40.6 19.9-58.1 12.2-16.4 29.3-29.9 49.4-38.9 38.7-17.3 80.8-25.3 132.7-25.2 52.6.1 94.8 8.1 132.9 25.2 20 9 37.1 22.5 49.4 39 13 17.5 19.9 37.6 19.9 58.2s-6.9 40.7-19.9 58.1z"/><path d="M486.5 341.2c-11.8-15.9-28.2-28.9-47.6-37.5-37.4-16.8-79.1-24.6-131-24.8-51.2-.1-92.8 7.7-130.8 24.8-19.4 8.7-35.8 21.6-47.6 37.4-12.4 16.7-19 35.8-19 55.3s6.6 38.7 19 55.4c11.8 15.9 28.2 28.9 47.6 37.5 37.4 16.8 79.1 24.6 131 24.8 51.2.1 92.8-7.7 130.8-24.8 19.4-8.7 35.8-21.6 47.6-37.4 12.4-16.7 19-35.8 19-55.3-.1-19.5-6.6-38.7-19-55.4zm-3.7 108c-11.3 15.2-27.1 27.6-45.8 35.9-37.4 16.8-78.4 24.5-128.9 24.4-51.3-.1-92.3-7.9-129.1-24.4-18.6-8.3-34.4-20.8-45.8-36.1-11.8-15.9-18.1-34.1-18.1-52.7 0-18.5 6.2-36.7 18-52.6 11.3-15.2 27.1-27.6 45.8-35.9 37.4-16.8 78.4-24.5 128.9-24.4 51.3.1 92.3 7.9 129.1 24.4 18.6 8.3 34.4 20.8 45.8 36.1 11.8 15.9 18.1 34.1 18.1 52.7s-6.2 36.8-18 52.6z"/><path d="M182.6 449.5c0-2.5 2.5-3.3 4.5-3.3s4.1.8 5.5 2.3v-4.1c-1.7-.5-3.5-.8-5.2-.8-4.3 0-8.8 1.7-8.8 6.3 0 7.7 12.1 6.7 12.1 12.3 0 2.5-3 3.8-5 3.8-2.7 0-5.6-1.2-7.7-3l1 4.5c2 .8 4.1 1.1 6.3 1.1 5.5 0 9.4-3.6 9.4-7.5 0-6.7-12.1-6.6-12.1-11.6zM224.3 444.3c2.7 1 1.6 3.9.9 6l-4 13.3-4.9-15.7c-.5-1.6-.7-2.8-.5-3.7h-5v.1c1.9 1 1.2 3.4.6 5.6l-4.1 13.8-5.2-16.9c-.2-.7-.6-1.8-.4-2.6h-5.1v.1c1.8 1.2 2.3 3.6 2.9 5.6l4.1 13.4c1.2 3.7 1.5 3.5 4.7 5.9l5.5-18.3 3.9 12.5c1.2 3.7 1.4 3.6 4.6 5.8l7.4-24.9h-5.4zM251.4 462.8l-7.3-18.6h-5.6v.1c1.7.5 1 2.1.5 3.4l-5.9 15.1c-.8 2.1-1.4 4.1-3.4 5.1v.1h6.5v-.1c-1.7-.6-1.4-1.7-.7-3.7l1.8-5.1h8.9l1.9 5.1c.9 2.5 1.2 2.9-.5 3.7v.1h7.2v-.1c-2-1-2.6-3.1-3.4-5.1zm-13.1-6.4l3.5-9.1 3.4 9.1h-6.9zM272.1 463l-5.1-6.6c2.9-.7 5.6-3.2 5.6-6.4 0-3.3-2.6-5.8-7.3-5.8H257v.1c1.8.7 1.5 3.3 1.5 5V463c0 1.6.2 4.3-1.5 5v.1h6.7v-.1c-1.8-.6-1.6-3.3-1.6-5v-16.2c.8-.1 1.6-.3 2.4-.3 2.4-.1 4.5 1.4 4.5 4 0 3.4-3.3 4.8-6.1 5.2l3.2 5.1 4.3 5.5c1.1 1.3 2.2 1.8 4.1 1.8h3.2c-1.9-1.4-4.2-3.3-5.6-5.1zM293.8 444.2h-14c-.5-.1-.9-.1-1.3-.3h-.1l-1.2 4.3h.1c1.1-1.1 2.7-1.5 4.2-1.5h3.1V463c0 1.6.2 4.3-1.5 5v.1h7v-.1c-1.9-1.1-1.8-2.5-1.8-4.6v-16.5h3.2c1.2 0 2.6.2 3 1.5h.1l1.1-4.3h-.1c-.6.1-1.2.1-1.8.1zM317 444.3c1.8.7 1.5 3.3 1.5 5v4.5h-12.7v-4.5c0-1.7-.2-4.3 1.5-5v-.1h-6.7v.1c1.8.7 1.5 3.3 1.5 5V463c0 1.6.2 4.3-1.5 5v.1h6.7v-.1c-1.8-.7-1.5-3.3-1.5-5v-6.6h12.7v6.6c0 1.6.2 4.3-1.5 5v.1h6.7v-.1c-1.8-.7-1.6-3.3-1.6-5v-13.7c0-1.6-.2-4.3 1.6-5v-.1H317v.1zM360.4 464.2l-2.3-17.8c0-.8.2-1.9 1.1-2.1v-.1h-6.1c0 .8-.2 1.5-.5 2.2l-5.8 15.4-6.6-16c-.2-.5-.5-1.1-.5-1.6h-6.1v.1c1.6.9 1.2 2.4 1.1 3.4l-2 15.2c-.3 2-.5 3.7-2 5.1v.1h5.7v-.1c-1.7-.8-1.4-2.4-1.1-4.6l2-15.6 6.7 16.3c.8 2 1.3 3 3.1 4.4l7.9-20.8 2 17.5c0 1.2-.2 2.3-1.4 2.7v.1h6.8v-.1c-1.7-1-1.8-2-2-3.7zM379.6 443.6c-7.4-.2-13.2 5.6-13.2 12.5 0 7.4 5.9 12.6 12.8 12.6 7 0 12.9-5.4 12.9-12.8.1-6.6-5.1-12.4-12.5-12.3zm-.2 22.4c-5.5 0-9-5.2-9-10.3 0-5.5 3.5-9.5 8.9-9.5 5.6 0 8.8 5.1 8.8 10.4.1 5.4-3.3 9.4-8.7 9.4zM412.3 463l-5.1-6.6c2.9-.7 5.6-3.2 5.6-6.4 0-3.3-2.6-5.8-7.3-5.8h-8.4v.1c1.8.7 1.5 3.3 1.5 5V463c0 1.6.2 4.3-1.5 5v.1h6.7v-.1c-1.8-.6-1.6-3.3-1.6-5v-16.2c.8-.1 1.6-.3 2.4-.3 2.4-.1 4.5 1.4 4.5 4 0 3.4-3.3 4.8-6.1 5.2l3.2 5.1 4.3 5.5c1.1 1.3 2.2 1.8 4.1 1.8h3.2c-1.8-1.4-4-3.3-5.5-5.1zM430.1 465.4l-4.5-.4v-8.6h2.6c1.1 0 2.6 0 3.1 1h.1v-3.8h-.1c-.4.2-1 .2-1.5.2h-4.2v-6.7c1.1-.2 2.4-.3 3.6-.3 1.6 0 3.1.1 4.1 1.5h.1V444h-.1c-.5.3-1.1.2-1.7.2h-11.2v.1c1.8.7 1.6 3.3 1.6 5V463c0 1.6.2 4.3-1.6 5v.1H435l1.6-4.7h-.1c-1.6 1.5-4 2.2-6.4 2zM413.3 427.6c0-.4-.1-.8-.1-1.2h15.1v-35.5h-17v-1.6h18.6v37.1H445V413.2c0-1.2.8-2.1 1.8-2.1h1.9V405h1.9v6.1h1.9V405h1.9v6.1h1.9c1 0 1.8 1 1.8 2.1V426.4h15.2v-62.2h-3.1v13.5L460 367.5h-17.6l-9.6 9.6v-12.9h-3.1v12.3h-18.6c0-.8.1-1.4.1-1.7.3-2 1.6-5 3-8.2.7-1.7 1.5-3.4 2.2-5.2 1.6 1.1 3.6 1.8 5.9 1.9 3.2.1 6.1-1.1 7.9-3 2.9 1 5.9.7 8.1-.5-.2-1.1-.7-2.2-1.5-3.3 2.3.4 4.5 0 6.3-1-.4-2-1.6-3.9-3.4-5.3 2.9-.1 5.5-1.4 7.2-3.2-.9-1.5-2.4-2.7-4.1-3.5 1.5-1.4 2.5-3.2 2.8-5-2.5-1.3-5.7-1.4-8.8 0l-.6.3c.4-.7.8-1.4 1.1-2.2 1.3-3.4.9-7-.8-9.5-2.2.7-4.1 2.4-5.4 4.7.1-.5.1-.9.1-1.4 0-3.7-1.7-6.9-4.2-8.5-1.6 1.3-2.8 3.4-3.3 5.8-.8.5-1.6 1.2-2.2 2h-.7c1-1.6 1.6-3.6 1.6-5.8 0-3.7-1.7-6.9-4.2-8.5-1.4 1.1-2.4 2.7-3 4.6-.2-.2-.3-.4-.5-.6-1.9-2.2-4.3-3.4-6.7-3.7-1.7-1.1-3.6-1.6-5.4-1.6-.4 1.6-.4 3.3.1 5-.7-1-1.5-1.8-2.4-2.4-2.1 1.8-3.5 4.7-3.5 8 0 1.4.2 2.7.7 3.9-.2.3-.5.6-.7 1l-.9-1.2c-1.5-1.7-3.3-2.8-5.1-3.3.6-1.8.7-3.7.3-5.4-2.8-.1-5.7 1.2-7.9 3.8-.3.3-.5.6-.7.9-.2-1.3-.6-2.5-1.2-3.5.2 0 .5-.1.7-.1 3.6-.8 6.3-3.2 7.4-6-2.2-1.7-5.4-2.4-8.6-1.6-2.2.5-4 1.6-5.4 2.9-.9-1.4-2.1-2.5-3.4-3.2-.3.3-.5.6-.8.9-.5 0-1.1 0-1.6.1-.3-3.2-1.9-5.8-4.1-7.3-1.7 1.4-3 3.7-3.4 6.3-.2-.5-.4-.9-.6-1.4-1.5-3-4.1-5-6.7-5.6-1.5 2.6-1.6 6.2.1 9.5v.1c-2-1.6-4.3-2.5-6.6-2.4-.5 1.8-.4 3.8.4 5.8-2.1-2-4.7-3-7.1-2.9-.7 2.4-.2 5.3 1.4 7.8-.2-.1-.3-.2-.5-.2-3-1.4-6.3-1.3-8.8-.1.5 3 2.7 5.8 6.1 7.3 2.5 1.1 5.1 1.3 7.3.6.1.5.2 1 .4 1.5-.4-.1-.9-.2-1.3-.2-1.4-.7-2.9-1.1-4.6-1.2-3.3-.1-6.3 1.2-8.1 3.2 1.6 2.5 4.7 4.4 8.4 4.5 1.4 0 2.8-.2 4-.6.2.6.6 1.2.9 1.8-1.4-.1-2.7.1-3.9.6.2 3 2.2 6 5.4 7.8.9.5 1.7.8 2.6 1.1-3.1-.2-5.9.7-7.8 2.5 1.3 2.7 4.3 4.8 7.9 5.2 2.8.4 5.4-.3 7.4-1.6 1.9 5.1 3.9 11.3 4.1 15.2.1 1.2.1 3.1.2 5.4h-15.6l-1.1-2.7H339.8l-1.6-1.6v-8.5h-59.6v8.2l-1.9 1.9h-6.1l-1.1 2.7h-15.6c.1-2.4.2-4.3.2-5.4.2-3.9 2.2-10.2 4.1-15.2 2 1.3 4.6 2 7.4 1.6 3.6-.5 6.6-2.5 7.9-5.2-1.9-1.8-4.7-2.7-7.8-2.5.9-.2 1.8-.6 2.6-1.1 3.2-1.8 5.2-4.8 5.4-7.8-1.2-.5-2.5-.6-3.9-.6.4-.6.7-1.2.9-1.8 1.2.4 2.6.6 4 .6 3.7-.1 6.8-1.9 8.4-4.5-1.8-2.1-4.8-3.4-8.1-3.2-1.7.1-3.3.5-4.6 1.2-.4 0-.9.1-1.3.2.2-.5.3-1 .4-1.5 2.2.6 4.9.5 7.3-.6 3.4-1.5 5.6-4.4 6.1-7.3-2.5-1.2-5.7-1.3-8.8.1-.2.1-.3.2-.5.2 1.6-2.5 2.1-5.4 1.4-7.8-2.4-.1-5 .9-7.1 2.9.7-1.9.9-4 .4-5.8-2.2-.1-4.6.8-6.6 2.4v-.1c1.6-3.3 1.6-6.9.1-9.5-2.7.6-5.2 2.6-6.7 5.6-.2.5-.4.9-.6 1.4-.4-2.6-1.6-4.8-3.4-6.3-2.2 1.5-3.8 4.2-4.1 7.3-.5-.1-1.1-.1-1.6-.1-.2-.3-.5-.6-.8-.9-1.3.7-2.5 1.8-3.4 3.2-1.4-1.4-3.2-2.4-5.4-2.9-3.2-.7-6.4 0-8.6 1.6 1.1 2.8 3.8 5.2 7.4 6 .2.1.5.1.7.1-.6 1-1.1 2.2-1.2 3.5-.2-.3-.5-.6-.7-.9-2.2-2.5-5.2-3.8-7.9-3.8-.5 1.7-.4 3.6.3 5.4-1.9.6-3.6 1.7-5.1 3.3l-.9 1.2c-.2-.3-.4-.7-.7-1 .4-1.2.7-2.5.7-3.9 0-3.3-1.4-6.3-3.5-8-.9.6-1.7 1.4-2.4 2.4.5-1.7.6-3.5.1-5-1.8 0-3.7.5-5.4 1.6-2.4.3-4.9 1.5-6.7 3.7-.2.2-.3.4-.5.6-.6-1.9-1.6-3.5-3-4.6-2.5 1.7-4.2 4.9-4.2 8.5 0 2.2.6 4.2 1.6 5.8h-.7c-.7-.8-1.4-1.5-2.2-2-.5-2.4-1.7-4.4-3.3-5.8-2.5 1.7-4.2 4.9-4.2 8.5 0 .5 0 .9.1 1.4-1.3-2.3-3.3-4-5.4-4.7-1.7 2.4-2.2 6-.8 9.5.3.8.7 1.5 1.1 2.2l-.6-.3c-3.1-1.3-6.3-1.2-8.8 0 .3 1.8 1.3 3.6 2.8 5-1.8.8-3.2 2-4.1 3.5 1.6 1.9 4.2 3.1 7.2 3.2-1.8 1.5-3 3.3-3.4 5.3 1.8 1 4 1.3 6.3 1-.7 1-1.2 2.1-1.5 3.3 2.3 1.2 5.2 1.5 8.1.5 1.8 1.9 4.7 3.2 7.9 3 2.2-.1 4.3-.8 5.9-1.9.7 1.8 1.5 3.6 2.2 5.2 1.4 3.2 2.7 6.2 3 8.2.1.4.1 1 .1 1.7h-18.6v-12.3h-3.1v12.9l-9.6-9.6h-17.6l-10.2 10.2v-13.5h-3.1v62.2h15.2V413.2c0-1.2.8-2.1 1.8-2.1h1.9V405h1.9v6.1h1.9V405h1.9v6.1h1.9c1 0 1.8 1 1.8 2.1V426.4H186.8v-37.1h18.6v1.6h-17v35.5h15.1c0 .4-.1.8-.1 1.2H143v1.5h62.5c.2-1.4.4-3.4.6-6 0-.6.1-1.2.1-1.8 0-.3 0-.6.1-1 .3-3.6.5-7.9.7-12.3v-.3-.9-.3-.9-.4-.8-.5-.7-.5-.8-.4-.7-.5-.6-.5-.7-.6-.6-.6-.6-.6-.6-.6-.6-.6-.5-.6-.4-.7-1.6-.1-1.3c.1-4 .1-7.6 0-10.1v-.7-.6c0-.9-.1-1.6-.2-2.1-1.2-6.9-10.4-20-7.7-30.1.6-2.1 1.2-3.6 1.2-3.6s-1 14.4 7.9 23.4c0 0 3.6-19.4 9.4-22.8 0 0-7.2 13.1-7 46.7v20.7c0 .8.1 1.7.1 2.4V420c0 1.1.1 2 .1 2.9v3.4c.1 1.2.2 2.1.2 2.8l30.4-.1c0 .8-.1 1.6-.1 2.5l-.1 3h12.2l-.6-2.3c-.2-.7-.4-1.8-.5-3.2h108.6c-.1 1.4-.3 2.5-.5 3.2l-.6 2.3H372l-.1-3c0-.8-.1-1.7-.1-2.5h30.4c.1-.7.1-1.6.2-2.7v-.1-.4-.1-.4-.1-.4-.1-.4-.1-.5-.1-.6-.1c0-.9.1-1.8.1-2.9v-.1-.7-.3-.6-.2-.6-.2-.6-.3-.6-.4-.7-.3-.8-.2-.9-.3-1-.1c0-.8.1-1.6.1-2.4v-.2-1.1-.3-1-.3-1-.4-1-.5-.9-.6-.9-.5-1-.6-.9-.7-1.1-.6-1.3-.4-1.8-.6-3c.2-33.6-7-46.7-7-46.7 5.8 3.5 9.4 22.8 9.4 22.8 8.8-9 7.9-23.4 7.9-23.4s.6 1.5 1.2 3.6c2.8 10.1-6.5 23.2-7.7 30.1-.1.5-.1 1.2-.2 2.1V377.8c-.1 2.5 0 6 0 10.1V408c.2 4.5.5 8.7.7 12.3 0 .3 0 .6.1 1 0 .6.1 1.3.1 1.8.2 2.5.4 4.5.6 5.9h62.5v-1.5l-56.9.1zm28.4-4.7h-3.5v-6.7h3.5v6.7zm0-11.2h-3.5V405h3.5v6.7zm0-11.3h-3.5v-6.7h3.5v6.7zm.9-18.4v7.8h-5.3V382v-.4-.1l2.5-2.5h.2l2.6 2.6v.1c.1 0 0 .2 0 .3zm8 18.4h-1.9v-6.5h1.9v6.5zm3.9 0h-1.9v-6.5h1.9v6.5zm10.4 22.5h-3.5v-6.7h3.5v6.7zm0-11.2h-3.5V405h3.5v6.7zm0-11.3h-3.5v-6.7h3.5v6.7zm1-18.4v7.8h-5.3V382v-.4-.1l2.5-2.5h.2l2.6 2.6v.4zm-9.4-.2l-1.1.8v7.2H448v-7.2l-1.1-.8 4.8-4.8 4.8 4.8zM432 347.5l.1.1h-.3c.1-.1.1-.1.2-.1zm-6.6 4.5c.7-1 1.1-2 1.4-3 .4 0 .9-.1 1.3-.2.3 1.1.7 2.1 1.4 3-1.4-.1-2.8-.1-4.1.2zm.9-15c.5.5 1 .9 1.5 1.3.8-.6 1.5-1.4 2-2.4-.2 1.5-.1 2.9.3 4.2-.7.2-1.3.4-2 .6-1.4.6-2.6 1.4-3.6 2.4 0-1.1-.2-2.2-.5-3.2.9-.7 1.7-1.7 2.3-2.9zm-2.6 17.1c.2.6.5 1.2.9 1.8-.8-.2-1.6-.3-2.5-.4h-.3c.6-.4 1.3-.9 1.9-1.4zm-239.2-6.6l.1-.1c.1 0 .1.1.2.1-.1.1-.2 0-.3 0zm2.4-11.5c.5.9 1.2 1.7 2 2.4.5-.4 1-.8 1.5-1.3.6 1.2 1.4 2.2 2.3 3-.3 1-.5 2.1-.5 3.2-1-1-2.2-1.8-3.6-2.4-.7-.3-1.3-.5-2-.6.3-1.4.5-2.9.3-4.3zm.2 15.9c.7-.9 1.1-2 1.4-3 .4.1.9.1 1.3.2.3 1 .8 2.1 1.4 3-1.3-.4-2.7-.4-4.1-.2zm7.4 3.6c-.9 0-1.7.2-2.5.4.4-.6.7-1.1.9-1.8.6.5 1.2 1 1.9 1.4h-.3zm-39.3 67.4h-3.5v-6.7h3.5v6.7zm0-11.2h-3.5V405h3.5v6.7zm0-11.3h-3.5v-6.7h3.5v6.7zm.9-18.4v7.8h-5.3V382v-.4-.2l2.5-2.5h.2l2.6 2.6v.5zm8 18.4h-1.9v-6.5h1.9v6.5zm3.8 0H166v-6.5h1.9v6.5zm.9-17.9v7.2h-7.4v-7.2l-1.1-.8 4.8-4.8 4.8 4.8-1.1.8zm9.6 40.4h-3.5v-6.7h3.5v6.7zm0-11.2h-3.5V405h3.5v6.7zm0-11.3h-3.5v-6.7h3.5v6.7zm.9-18.4v7.8H174V382v-.4-.2l2.5-2.5h.2l2.6 2.6v.5zm15.7 41h-3.5v-6.7h3.5v6.7zm0-11.2h-3.5v-6.7h3.5v6.7zm0-11.3h-3.5v-6.7h3.5v6.7zm8.7 22.5h-3.5v-6.7h3.5v6.7zm0-11.2h-3.5v-6.7h3.5v6.7zm0-11.3h-3.5v-6.7h3.5v6.7zm-9.2-16.5v3.8h-7.7v-10.1h10.5l-4 5.5 1.2.8zm11 3.9h-4.8V384l1.1-.8-4-5.5h7.7c.1 2.5 0 6.1 0 10.2zm-6.3-57.4c.6-.6 1.1-1.3 1.5-2.1.9-.1 1.9-.4 2.8-.8-.4.9-.6 1.9-.7 3-.1.9-.1 1.8 0 2.7-1-1.3-2.3-2.2-3.6-2.8zm8.5 28.1c-.5-.8-.9-1.7-1.3-2.5 1.6-1.8 2.6-4.3 2.6-7.1v-.9c.4.7.8 1.4 1.3 2-1.1 3-1.9 6-2.6 8.5zm7.2-19.6c-.6-1.8-1.6-3.3-2.9-4.4-2.5 1.7-4.2 4.9-4.2 8.5v.9c-.6-1.2-1.4-2.2-2.3-3 .1-.7 0-1.5-.1-2.2 2.6-1.4 4.6-4.4 5-8 .2-2.1-.2-4.1-1-5.8.7-.5 1.4-1.1 2-1.8.4-.4.7-.9 1-1.4-.2.8-.4 1.6-.5 2.5-.5-.1-.9-.1-1.4-.1-.8 2.9 0 6.4 2.5 9.2.9 1 1.9 1.8 2.9 2.4-.4.9-.8 2-1 3.2zm173.2-9.7c.4 1.5 1.2 3.1 2.4 4.4.6.7 1.2 1.2 1.9 1.7-.4.9-.7 1.9-.9 2.9-.8-.8-1.7-1.5-2.6-2 .5-2.5.1-4.9-1-6.8.1 0 .2-.1.2-.2zm3 29.1c-1.6-.2-3.2 0-4.6.5.8-1.2 1.3-2.5 1.5-3.9.4.6.9 1.3 1.4 1.9.7.5 1.2 1 1.7 1.5zm-6.6-5.8c.7-.5 1.3-1.1 1.8-1.8.2 1 .6 1.9 1.1 2.9-1.7-.4-3.7-.2-5.6.5.9-.4 1.8-.9 2.7-1.6zm-3.7-20.1c.7 0 1.4-.1 2.2-.2-.7.8-1.2 1.8-1.6 2.9-.4.9-.6 1.9-.7 2.8-.7.3-1.3.6-2 1v-.8c0-1.2-.2-2.4-.5-3.5 1-.7 1.8-1.6 2.5-2.7 0 .2 0 .3.1.5zm.5 21.9l-1.8.9c-1.3.8-2.4 1.9-3.2 3.1.3-1.1.6-2.3 1-3.4 1.3.1 2.7-.1 4-.6zm-1.6-33.5c-1 .5-1.9 1.2-2.7 2.1.1-.7.1-1.5 0-2.3v-.1c.9.2 1.8.3 2.7.3zm-5.7 24.3c-.1.5-.2 1.1-.3 1.6-.9 1.2-1.7 2.7-2.6 4.6-.6-2.2-1.4-4.6-2.4-6.6 1.2-.5 2.3-1.3 3.3-2.3.6 1.1 1.2 2 2 2.7zm-5.3-22.4c.3-.3.5-.6.7-.9.4 2.3 1.5 4.3 2.9 5.7-1.2.5-2.4 1.2-3.5 2.1-.2-1.2-.5-2.3-1.1-3.5-.3-.6-.7-1.2-1-1.7.8-.4 1.4-1 2-1.7zm-6.1-4.7v.1l-.1.1c0-.1.1-.1.1-.2zm-.8 18l.1.5c-.3 1-.4 2-.4 3.1s.2 2.2.5 3.2c-1.3-.6-2.6-.8-3.9-.8-.2.6-.3 1.3-.3 2l-1.5-.9c0-.7-.1-1.4-.2-2.1 1.2.5 2.4.8 3.6.8.4-1.8.1-3.9-.8-6 .8.3 1.9.4 2.9.2zm-.6-15.4h-.2c-.2.4-.4.9-.6 1.4-.2-.1-.5-.2-.7-.2-.3.5-.5 1.1-.7 1.7 0-1.5-.4-3.1-1.1-4.6 1 .8 2.1 1.4 3.3 1.7zm-8.9 5.7c0-1.2-.2-2.4-.7-3.5 2.1 1.9 4.6 2.9 7 2.9 0 .7 0 1.5.1 2.2-.1-.1-.2-.1-.3-.2-2-1.1-4.1-1.6-6.1-1.4zm.9 23.6c1 .1 2.1 0 3-.3.3.6.5 1.4.9 2.2-1.1-.8-2.4-1.5-3.9-1.9zm9.7 27.8c.1 2.9.2 6.3.3 10.1h-3V384l1.1-.8-4-5.5 5.6.1zm-6 0l-4 5.5 1.1.8v3.8h-2.2l-4.1-10.1h9.2zm-16.1 2.2h3.5v6.7h-3.5V380zm-60.1-14.9h55.4v14.2h-3v-8.8h-5.4v8.8h-5.6v-8.8h-5.4v8.8h-5.6v-8.8h-5.7v.1h.3v8.7h-5.6v-8.8h-5.4v8.8h-5.6v-8.8h-5.4v8.8h-3.1l.1-14.2zm-2.1 13.5v.7h-.1l.1-.7zm-6.2 1.4h3.5v6.7h-3.5V380zm-3.5-2.2l-4.1 10.1h-2.2V384l1.1-.8-4-5.5 9.2.1zm-9.6 0l-4 5.5 1.1.8v3.8h-3c.1-3.8.2-7.2.3-10.1h5.6zm.3-25.9c.3-.8.6-1.6.9-2.2 1 .2 2 .3 3 .3-1.5.4-2.8 1.1-3.9 1.9zm5.4-29c-.5 1.2-.7 2.4-.7 3.5-2-.2-4.2.3-6.2 1.4-.1.1-.2.1-.3.2.1-.8.2-1.5.1-2.2 2.5 0 5.1-1 7.1-2.9zm-6.2-4c-.8 1.5-1.1 3.1-1.1 4.6-.2-.6-.4-1.2-.7-1.7-.2.1-.5.1-.7.2-.2-.5-.4-.9-.6-1.4h-.2c1.1-.2 2.3-.8 3.3-1.7zm-4 17.7l.1-.5c1 .1 2 .1 3.1-.1-.9 2.1-1.2 4.2-.8 6 1.2 0 2.4-.3 3.6-.8-.1.7-.2 1.4-.2 2.1l-1.5.9c0-.7-.1-1.4-.3-2-1.3 0-2.6.2-3.9.8.3-1 .5-2.1.5-3.2-.1-1.1-.3-2.2-.6-3.2zm-.7-18.5v.2s0-.1-.1-.1c.1 0 .1-.1.1-.1zm-6.9 3.8c.2.3.4.6.7.9.6.7 1.3 1.3 2 1.8-.4.5-.7 1.1-1 1.7-.6 1.1-.9 2.3-1.1 3.5-1.1-1-2.3-1.7-3.5-2.1 1.4-1.5 2.5-3.5 2.9-5.8zm-2.6 20.6c1 1 2.1 1.8 3.3 2.3-1 2-1.8 4.4-2.4 6.6-.9-1.9-1.7-3.4-2.6-4.6 0-.5-.1-1.1-.3-1.6.8-.7 1.5-1.6 2-2.7zm-5-21.9v.1c-.1.8-.1 1.5 0 2.3-.8-.9-1.7-1.6-2.7-2.1 1 0 1.9-.1 2.7-.3zm-3.7 11.9c0-.2.1-.3.1-.5.7 1.1 1.6 2 2.5 2.7-.3 1.1-.5 2.2-.5 3.5v.8c-.6-.4-1.3-.8-2-1-.1-.9-.3-1.9-.7-2.8-.4-1.1-1-2-1.6-2.9.7.1 1.5.2 2.2.2zm3.4 22.5c.3 1.1.7 2.2 1 3.4-.8-1.2-1.9-2.2-3.2-3.1-.6-.4-1.2-.7-1.8-.9 1.3.5 2.7.7 4 .6zm-9-4.1c.5.6 1.1 1.2 1.8 1.8.9.7 1.8 1.2 2.7 1.6-1.9-.7-3.8-.8-5.6-.5.6-1 .9-2 1.1-2.9zm-.2 7.9c-1.4-.5-2.9-.7-4.6-.5.5-.5 1.1-.9 1.6-1.5.6-.6 1-1.3 1.4-1.9.2 1.4.8 2.7 1.6 3.9zm-4-25.1c1.2-1.3 2-2.9 2.4-4.4l.3.3c-1.1 1.9-1.5 4.3-1 6.8-.9.5-1.8 1.2-2.6 2-.2-1-.5-2-.9-2.9.6-.5 1.2-1.1 1.8-1.8zm-8.3 15.9c1.4.7 3 1 4.7 1l-.9.9c-2.8 3.1-4 7-3.4 10 .3 0 .5-.1.8-.1-1.4 1.4-2.4 3-2.8 4.8 2.4 1.3 5.7 1.5 8.8.3 3.1-1.2 5.3-3.6 6.1-6.3.6.7 1.4 1.4 2.3 1.9 2.7 1.7 5.7 2.2 8.3 1.5.2.7.4 1.4.5 2l.8 3.2c.4 1.6.7 4.2 1 7.7h-12.5v-7.1h-4.8v7.1H214c.5-12.7 2.3-21.4 3.8-26.9zm26.4 37.6v.6h-1.8V384l.6-.4.5-.4-3.9-5.4h4.4c.1 1.6.1 3.4.2 5.3l-.1-.2c0 .7 0 2.7.1 4.3zm-7.9-3.2v3.8h-14.6V384l1.1-.8-4-5.5h20.3l-4 5.5 1.2.8zm-22.6-.7c-.2-.9.1-4.6.2-5.5h4.6l-3.9 5.4 1.1.9v3.8h-1.9c-.1-1.6-.1-3.1-.1-4.6zm29.6 44.3h-28.2c0-.4-.1-.8-.1-1.2h28.4c-.1.4-.1.8-.1 1.2zm-22-22.5v6.7h-3.5v-6.7h3.5zm-3.4-4.6v-6.7h3.5v6.7h-3.5zm3.4 15.8v6.7h-3.5v-6.7h3.5zm9.4-11.2v6.7h-3.5v-6.7h3.5zm-3.4-4.6v-6.7h3.5v6.7h-3.5zm3.4 15.8v6.7h-3.5v-6.7h3.5zm9.4-11.2v6.7h-3.5v-6.7h3.5zm-3.4-4.6v-6.7h3.5v6.7h-3.5zm3.4 15.8v6.7h-3.5v-6.7h3.5zm-26.4-25.5v-1.6h30.6v1.6h-30.6zm31.7 41.7c0-1 .1-2.1.2-3.5v-.1c0-.8.1-1.7.1-2.6v-.2c0-.4 0-.8.1-1.3v-.6-1.1-.6c0-.5 0-.9.1-1.4v-.5c0-.5 0-1.1.1-1.6v-.5c0-.6 0-1.1.1-1.7v-.5c0-.6 0-1.2.1-1.8v-.3c0-.6 0-1.3.1-1.9v-.2c0-.7 0-1.3.1-2v-.4c0-.7 0-1.3.1-2v-.4c0-.7 0-1.4.1-2.1v-.3c0-.7 0-1.5.1-2.2v-.1-2.2-.2-2.2-.3-2.1-.3-2.1-.2-2.2-1.6-.1c0-4.1-.1-8-.3-11.4 0-.4 0-.9-.1-1.3-.2-3.5-.5-6.4-1-8.2-2.9-11.1-5.8-24-9.6-24.2 0 0 6-.2 10.6 16.1 0 0 1.3-11.9 5.4-16.9 0 0-2.3 16.1-1.9 19.4 0 0 3.1-12.3 9.6-15.9 0 0-7.1 16.3-7.5 24.2-.1 1.3-.2 3.6-.2 6.6v.3c-.1 2.9-.2 6.3-.3 10.1-.1 5.3-.2 11.3-.2 17.2V414.4c.1 5.1.2 9.6.5 13.1 0 .5.1 1 .1 1.5.1 1.4.3 2.6.5 3.5h-6.9zM355 411.8v-6.7h3.5v6.7H355zm3.5 4.5v6.7H355v-6.7h3.5zm-3.5-15.8v-6.7h3.5v6.7H355zm-3.3-9.7v35.5h11.2c0 .4-.1.8-.1 1.2H253.9c0-.4-.1-.8-.1-1.2H265v-35.5h-11.5v-1.6l24.9.1v-8.2h59.7v8.3l25-.1v1.6h-11.4zm-90.1 14.3v6.7h-3.5v-6.7h3.5zm-3.4-4.6v-6.7h3.5v6.7h-3.5zm3.4 15.8v6.7h-3.5v-6.7h3.5zM370.1 393V405.2c0 .7 0 1.4.1 2.1v.4c0 .7 0 1.3.1 2v.4c0 .7 0 1.3.1 2v.2c0 .6 0 1.3.1 1.9v.3c0 .6 0 1.2.1 1.8v.5c0 .6 0 1.1.1 1.7v.5c0 .5 0 1.1.1 1.6v.5c0 .5 0 .9.1 1.4V424.8c0 .4 0 .9.1 1.3v.2c0 .9.1 1.8.1 2.6v.1c.1 1.3.1 2.5.2 3.5h-6.8c.2-.9.4-2 .5-3.5 0-.5.1-.9.1-1.5.3-3.5.4-8 .5-13.1v-2.2-2.3-.1-2.3-2.4c0-5.9-.1-11.8-.2-17.2-.1-3.8-.2-7.2-.3-10.1v-.3c-.1-3-.2-5.3-.2-6.6-.4-7.9-7.5-24.2-7.5-24.2 6.5 3.6 9.6 15.9 9.6 15.9.4-3.3-1.9-19.4-1.9-19.4 4 5 5.4 16.9 5.4 16.9C375.1 343.8 381 344 381 344c-3.8.2-6.7 13.1-9.6 24.2-.5 1.9-.8 4.7-1 8.2 0 .4-.1.8-.1 1.3-.2 3.4-.3 7.2-.3 11.4V390.8c.1.8.1 1.5.1 2.2zm2.3-9.1c0-1.9.2-4.5.2-6.1h4.4l-4 5.4 1.1.9v3.8h-1.8c.1-1.3-.1-2.8.1-4zm29.2 43.7h-28.2c0-.4 0-.8-.1-1.2h28.4c-.1.4-.1.8-.1 1.2zM380 405.1v6.7h-3.5v-6.7h3.5zm-3.5-4.6v-6.7h3.5v6.7h-3.5zm3.5 15.8v6.7h-3.5v-6.7h3.5zm9.4-11.2v6.7h-3.5v-6.7h3.5zm-3.5-4.6v-6.7h3.5v6.7h-3.5zm3.5 15.8v6.7h-3.5v-6.7h3.5zm9.4-11.2v6.7h-3.5v-6.7h3.5zm-3.5-4.6v-6.7h3.5v6.7h-3.5zm3.5 15.8v6.7h-3.5v-6.7h3.5zm4.1-25.5h-30.6v-1.6h30.6v1.6zm-8-6.8v3.8h-14.6V384l1.1-.8-4-5.5h20.3l-4 5.5 1.2.8zm8.1 3.9h-1.9V384l1.1-.8-3.9-5.4h4.6c.1 2.1.1 7.6.1 10.1zm-4.1-38.3c1.5 5.5 3.2 14.2 3.8 26.9H390v-7.1h-4.8v7.1h-12.5c.2-3.5.5-6 1-7.7l.8-3.2c.2-.6.3-1.3.5-2 2.6.7 5.6.2 8.3-1.5.9-.6 1.6-1.2 2.3-1.9.8 2.6 3 5 6.1 6.3 3.1 1.2 6.3 1 8.8-.3-.4-1.7-1.3-3.4-2.8-4.8.3 0 .5.1.8.1.6-3-.5-6.9-3.4-10l-.9-.9c1.7 0 3.3-.3 4.7-1zm10 9c-.6-2.5-1.5-5.5-2.5-8.5.5-.6 1-1.3 1.3-2v.9c0 2.8 1 5.4 2.6 7.1-.4.9-.9 1.7-1.4 2.5zm2.2-17.6c-.9.8-1.7 1.8-2.3 3v-.9c0-3.7-1.7-6.9-4.2-8.5-1.3 1.1-2.3 2.6-2.9 4.4-.2-1.2-.6-2.3-1.1-3.3 1-.6 2-1.4 2.9-2.4 2.4-2.8 3.2-6.3 2.5-9.2-.5 0-.9 0-1.4.1-.1-.9-.2-1.7-.5-2.5.3.5.6.9 1 1.4.6.7 1.3 1.3 2 1.8-.8 1.7-1.2 3.7-1 5.8.4 3.6 2.4 6.6 5 8-.1.9-.1 1.6 0 2.3zm2.7-7.8c.1-.9.1-1.8 0-2.7-.1-1.1-.4-2-.7-3 .9.4 1.9.7 2.8.8.4.8.9 1.5 1.5 2.1-1.3.7-2.5 1.6-3.6 2.8zm16 44.6v10.1h-7.7V384l1.1-.8-4-5.5 10.6.1zm-18.7 0h7.7l-4 5.5 1.1.8v3.8h-4.8v-10.1zm10.5 16h3.5v6.7h-3.5v-6.7zm0 11.3h3.5v6.7h-3.5v-6.7zm0 11.2h3.5v6.7h-3.5v-6.7zm-8.6-22.5h3.5v6.7H413v-6.7zm0 11.3h3.5v6.7H413v-6.7zm0 11.2h3.5v6.7H413v-6.7z"/><path d="M308.7 331.9v-3.2h4.5V325h-5.7v6.9h-8v5.8h17.4v-5.8M276.7 360.9h63.2v1.5h-63.2zM304.7 359.6V354l-1.4-.8 5-6.6 5 6.6-1.4.8v5.6h26.2c-.3-.7-.5-1.3-.8-1.9v-16.3h-5.4v8.3c-3.9-4.3-9-7.5-14.8-9.1V339h-17.5v1.6c-5.8 1.6-10.9 4.8-14.8 9.1v-8.3h-5.4v16.3c-.3.6-.6 1.3-.8 1.9h26.1zM339.3 382.3h-63.2l-.1 1.4h63.2M280.5 384.9V407h3.9v-5.9-.3-.2l1.9-1.9H286.6l2 2V407h6.6v-5.9-.3-.2l1.9-1.9H297.4l2 2V407h3.5l3.1-3.1v-2.8-.3-.2l1.9-1.9H308.2l2 2v3.1l3.2 3.2h3.4v-5.9-.3-.2l1.9-1.9H319l2 2V407h6.6v-5.9-.3-.1l2.1-2.1h.4l1.9 1.9v6.5h3.9v-22.1h-55.4zm6 2.2l2.2 2.2V395.2h-4.3v-5.6-.3-.1l2.1-2.1zm11 0l2.2 2.2V395.2h-4.3v-5.6-.3-.1l2.1-2.1zm10.9 0l2.2 2.2V395.2h-4.3v-5.6-.3-.1l2.1-2.1zm11 0l2.2 2.2V395.2h-4.3v-5.6-.3-.1l2.1-2.1zm11 0c.1 0 .1 0 0 0l2.1 2.1v6h-4.3v-5.6-.2l2.2-2.3z"/></g></svg>