<svg xmlns="http://www.w3.org/2000/svg" width="612" height="792" viewBox="0 0 612 792"><g fill="#B30838"><path d="M124.822 287.677h10.57c1.075 0 1.95-.873 1.95-1.95v-3.574H122.87v3.573c0 1.078.873 1.95 1.952 1.95zM134.864 362.905V352.76c.03-.222.05-.436.05-.67.002-2.655-2.15-4.81-4.806-4.81s-4.81 2.155-4.81 4.81c0 .234.017.448.05.67v10.145h9.516zM274.714 342.238h24.753l1.684-1.68h-26.436M320.02 342.238h24.634v-1.68h-26.318M278.797 345.12h7.454v16.59h-7.453zM292.38 345.12h7.45v16.59h-7.45zM333 345.12h7.447v16.59H333zM309.478 344.228c-2.328 0-4.22 1.89-4.22 4.224 0 .198.02.39.045.58v12.36h8.35v-12.36c.026-.19.043-.382.043-.58 0-2.333-1.89-4.224-4.218-4.224zM319.705 345.12h7.45v16.59h-7.45zM260.188 350.286h2.64v8.415h-2.64zM260.188 336.23h2.64v8.414h-2.64zM260.188 322.165h2.64v8.415h-2.64zM264.995 350.286h2.644v8.415h-2.645zM264.995 336.23h2.644v8.414h-2.645zM264.995 322.165h2.644v8.415h-2.645zM269.798 350.286h2.646v8.415h-2.646zM269.798 336.23h2.646v8.414h-2.646zM269.798 322.165h2.646v8.415h-2.646zM481.668 285.726c0 1.078.87 1.95 1.952 1.95h10.566c1.074 0 1.952-.872 1.952-1.95v-3.573h-14.47v3.573zM493.658 362.905V352.76c.032-.222.052-.436.052-.67 0-2.655-2.152-4.81-4.808-4.81s-4.81 2.155-4.81 4.81c0 .234.02.448.05.67v10.145h9.516zM356.174 350.286h2.645v8.415h-2.646zM356.174 336.23h2.645v8.414h-2.646zM356.174 322.165h2.645v8.415h-2.646zM351.37 350.286h2.644v8.415h-2.645zM351.37 336.23h2.644v8.414h-2.645zM351.37 322.165h2.644v8.415h-2.645zM346.56 350.286h2.645v8.415h-2.644zM346.56 336.23h2.645v8.414h-2.644zM346.56 322.165h2.645v8.415h-2.644z"/><path d="M440.88 364.43c-.056-.467-.11-.976-.163-1.525h18.944v-44.46h-21.27c-.02-.696-.035-1.37-.05-2.04h23.28v46.5h19.053c-.026-.162-.042-.323-.042-.492v-16.07c0-1.47 1.01-2.662 2.25-2.662h2.415v-7.692h2.404v7.693h2.405v-7.692h2.4v7.693h2.417c1.242 0 2.245 1.192 2.245 2.662v16.07c0 .17-.015.33-.04.493h19.054v-77.87h-3.844v16.868l-12.782-12.78H477.53l-12.06 12.06v-16.146h-3.85v15.377h-23.335c.044-.954.107-1.695.186-2.17.43-2.56 2.045-6.303 3.757-10.265.895-2.07 1.84-4.27 2.73-6.538 2.012 1.392 4.553 2.26 7.352 2.355 4.03.132 7.64-1.387 9.947-3.815 3.632 1.223 7.358.924 10.18-.61-.293-1.43-.924-2.816-1.83-4.085 2.848.448 5.62 0 7.842-1.203-.52-2.48-2.036-4.837-4.266-6.654 3.678-.176 6.925-1.705 8.99-4.038-1.14-1.854-2.958-3.365-5.166-4.363 1.863-1.784 3.096-3.985 3.507-6.25-3.07-1.57-7.14-1.71-10.97-.06-.262.11-.5.25-.75.374.547-.837 1.023-1.754 1.4-2.74 1.657-4.295 1.12-8.8-1.052-11.862-2.695.905-5.165 2.988-6.794 5.88.067-.573.11-1.146.11-1.737 0-4.612-2.12-8.618-5.252-10.7-2.03 1.69-3.52 4.24-4.11 7.217-1.005.678-1.944 1.514-2.77 2.514-.3-.002-.607.012-.915.034 1.247-2.025 1.99-4.524 1.99-7.24 0-4.608-2.12-8.614-5.247-10.695-1.697 1.406-3.014 3.424-3.747 5.78-.19-.25-.367-.5-.578-.737-2.348-2.697-5.424-4.267-8.424-4.612-2.146-1.365-4.522-2.06-6.78-2-.54 1.96-.46 4.15.185 6.298-.83-1.232-1.85-2.274-3.013-3.044-2.65 2.198-4.393 5.884-4.393 10.05 0 1.725.3 3.37.832 4.855-.305.39-.583.797-.843 1.218-.34-.504-.706-.998-1.117-1.467-1.82-2.088-4.077-3.492-6.396-4.182.783-2.3.91-4.663.333-6.76-3.445-.082-7.175 1.547-9.92 4.694-.334.38-.635.78-.92 1.19-.233-1.613-.764-3.1-1.56-4.386.304-.054.606-.09.906-.164 4.494-1.027 7.923-3.994 9.243-7.515-2.74-2.09-6.715-2.962-10.784-2.03-2.7.624-5.01 1.95-6.713 3.673-1.108-1.77-2.583-3.18-4.27-4.07-.35.36-.674.754-.98 1.17v-.015c-.662-.014-1.327.05-2 .16-.413-3.955-2.39-7.314-5.164-9.156-2.174 1.802-3.72 4.605-4.21 7.857-.207-.586-.44-1.166-.723-1.735-1.868-3.727-5.074-6.238-8.432-7.028-1.868 3.262-1.97 7.796.09 11.92.014.028.028.053.048.082-2.484-2.058-5.443-3.128-8.222-3.055-.616 2.243-.445 4.795.484 7.236-2.603-2.445-5.86-3.71-8.895-3.633-.836 3.038-.223 6.623 1.773 9.753-.19-.093-.372-.205-.567-.296-3.805-1.71-7.88-1.62-10.975-.103.616 3.7 3.404 7.28 7.61 9.172 3.12 1.4 6.407 1.578 9.2.77.127.63.308 1.27.53 1.915-.558-.132-1.115-.212-1.673-.257-1.714-.856-3.686-1.386-5.812-1.462-4.172-.137-7.91 1.484-10.198 4.067 1.972 3.19 5.908 5.446 10.516 5.602 1.775.054 3.468-.22 5.01-.733.31.765.708 1.52 1.178 2.254-1.72-.095-3.385.147-4.867.72.293 3.748 2.763 7.548 6.786 9.793 1.078.595 2.19 1.028 3.31 1.33-3.86-.302-7.43.93-9.796 3.14 1.666 3.367 5.373 5.978 9.946 6.558 3.478.447 6.752-.382 9.21-2.054 2.328 6.346 4.847 14.193 5.086 19.067.07 1.483.162 3.843.262 6.824h-19.566l-1.37-3.36H348.977l-2.044-2.047v-10.674h-74.63v10.315l-2.4 2.406h-7.695l-1.368 3.36h-19.566c.098-2.98.19-5.34.264-6.823.235-4.873 2.75-12.72 5.084-19.066 2.458 1.672 5.734 2.502 9.212 2.054 4.568-.58 8.278-3.19 9.943-6.56-2.368-2.207-5.936-3.44-9.795-3.14 1.118-.3 2.23-.733 3.31-1.327 4.024-2.244 6.492-6.044 6.785-9.793-1.482-.572-3.152-.814-4.87-.72.47-.732.872-1.488 1.187-2.253 1.538.514 3.226.787 5.004.733 4.605-.156 8.54-2.41 10.514-5.602-2.284-2.583-6.023-4.204-10.192-4.067-2.128.076-4.104.606-5.815 1.462-.558.044-1.115.125-1.673.257.22-.643.406-1.284.533-1.915 2.79.807 6.077.63 9.2-.77 4.2-1.89 6.988-5.47 7.604-9.17-3.095-1.52-7.164-1.607-10.974.102-.196.09-.372.203-.567.296 2-3.13 2.606-6.715 1.774-9.753-3.032-.078-6.29 1.19-8.896 3.634.934-2.44 1.1-4.993.484-7.235-2.778-.073-5.737.998-8.217 3.054.012-.03.03-.055.044-.084 2.062-4.123 1.96-8.657.087-11.92-3.355.79-6.562 3.302-8.427 7.03-.29.57-.523 1.148-.724 1.735-.49-3.25-2.034-6.054-4.21-7.856-2.78 1.84-4.75 5.2-5.165 9.156-.67-.11-1.34-.174-2-.16-.002.006-.002.013-.002.016-.306-.415-.63-.81-.98-1.17-1.688.89-3.158 2.3-4.266 4.07-1.71-1.722-4.013-3.05-6.713-3.673-4.067-.932-8.044-.06-10.785 2.03 1.32 3.52 4.75 6.488 9.244 7.515.3.073.6.11.906.164-.802 1.286-1.33 2.773-1.56 4.385-.286-.41-.587-.81-.92-1.19-2.743-3.146-6.475-4.775-9.918-4.694-.582 2.098-.453 4.46.325 6.76-2.316.69-4.57 2.095-6.39 4.183-.415.47-.782.963-1.12 1.467-.25-.42-.533-.827-.838-1.218.536-1.487.833-3.13.833-4.854 0-4.166-1.743-7.852-4.396-10.05-1.162.77-2.182 1.812-3.01 3.044.644-2.15.72-4.338.183-6.3-2.255-.058-4.632.637-6.78 2.002-3 .345-6.078 1.915-8.43 4.612-.205.237-.38.487-.57.736-.735-2.355-2.053-4.373-3.745-5.78-3.13 2.082-5.25 6.088-5.25 10.695 0 2.716.746 5.215 1.993 7.24-.308-.022-.616-.037-.92-.034-.82-1-1.763-1.836-2.772-2.514-.588-2.976-2.073-5.53-4.107-7.216-3.128 2.08-5.248 6.087-5.248 10.7 0 .59.04 1.163.11 1.735-1.63-2.89-4.096-4.973-6.794-5.878-2.17 3.062-2.71 7.566-1.053 11.86.38.99.856 1.906 1.404 2.742-.248-.125-.488-.264-.748-.374-3.835-1.65-7.904-1.512-10.975.06.41 2.266 1.646 4.467 3.51 6.25-2.21.997-4.024 2.508-5.166 4.362 2.063 2.333 5.313 3.86 8.993 4.038-2.23 1.817-3.75 4.174-4.268 6.654 2.218 1.203 4.99 1.65 7.838 1.203-.9 1.27-1.53 2.656-1.83 4.086 2.825 1.533 6.552 1.832 10.184.61 2.304 2.427 5.918 3.946 9.948 3.814 2.798-.095 5.34-.963 7.356-2.355.886 2.267 1.83 4.468 2.725 6.537 1.712 3.96 3.33 7.703 3.76 10.265.077.475.138 1.215.182 2.17h-23.332v-15.378h-3.847v16.147l-12.06-12.06h-22.024l-12.785 12.78v-16.868h-3.845v77.87h19.053c-.027-.163-.044-.324-.044-.493v-16.07c0-1.47 1.01-2.662 2.252-2.662h2.414v-7.692h2.404v7.693h2.4v-7.692h2.407v7.693h2.415c1.245 0 2.247 1.192 2.247 2.662v16.07c0 .17-.015.33-.04.493h19.053v-46.5h23.283c-.016.67-.035 1.344-.055 2.04h-21.27v44.46h18.947c-.057.55-.113 1.06-.167 1.525h-75.623v1.842l78.28.05c.248-1.73.505-4.306.757-7.452.058-.74.117-1.51.175-2.307 0 0 0-.012.005-.015.03-.4.054-.802.083-1.215v-.008c.322-4.54.63-9.882.904-15.458.005-.114.01-.234.017-.352.017-.382.037-.77.056-1.157.002-.127.01-.267.017-.398.015-.36.032-.727.046-1.088.012-.166.02-.335.027-.512l.044-.968c.007-.206.015-.404.027-.61.016-.3.026-.6.036-.9.012-.206.02-.42.03-.617.01-.315.026-.624.038-.94.005-.182.015-.366.02-.554.015-.31.027-.618.042-.923.007-.23.015-.455.027-.677l.03-.814c.01-.22.016-.447.024-.668.01-.28.022-.558.034-.836.006-.235.016-.47.025-.704.008-.262.02-.526.025-.785.013-.235.02-.462.027-.697.012-.264.017-.528.027-.785.01-.24.017-.48.024-.713l.022-.704c.007-.254.017-.51.027-.768.005-.242.015-.477.02-.72.01-.24.015-.488.024-.733.004-.227.01-.46.018-.682l.022-.748.015-.543.022-.823.047-2.042c.005-.027.005-.042.005-.064.01-.535.02-1.065.033-1.59v-.03c.105-5.07.132-9.47.054-12.62 0-.013-.005-.028-.005-.035-.002-.286-.015-.562-.02-.83v-.02c-.012-.265-.024-.522-.03-.764 0-.006-.004-.02-.004-.036-.052-1.16-.125-2.06-.22-2.64-1.443-8.65-13.066-25.077-9.616-37.733.724-2.647 1.443-4.567 1.443-4.567s-1.198 18.023 9.855 29.32c0 0 4.568-24.275 11.777-28.602 0 0-8.98 16.403-8.713 58.528v.022c.007 1.208.027 2.45.05 3.705.006.242.006.477.01.72.016.762.03 1.518.05 2.26.005.158.007.314.01.47.012.557.025 1.114.04 1.664.002.258.01.513.017.77l.03 1.32.023.862c.007.384.02.773.024 1.147.01.275.015.542.024.806.01.423.018.844.03 1.254.005.227.01.455.017.683.012.396.017.79.03 1.174l.02.748.03 1.145c.007.213.01.428.02.638.01.416.02.822.032 1.225.006.176.01.35.014.52.015.434.027.862.042 1.285 0 .14.005.28.01.423.01.422.024.84.037 1.253.002.137.007.276.015.408.012.464.027.91.042 1.358.002.073.002.154.005.234.034 1.057.068 2.077.103 3.058v.09c.02.448.034.88.05 1.314l.01.323c.01.36.026.72.038 1.063.002.096.005.18.01.276.015.348.024.704.04 1.037l.014.345c.012.293.024.587.034.868l.015.445c.01.26.02.522.033.77.002.14.01.28.015.415.01.268.02.54.034.804.005.102.01.205.013.3.012.28.02.55.036.814.006.103.01.206.01.31.014.246.026.483.036.725l.015.332c.016.284.025.562.04.83 0 .048.005.095.01.136.06 1.328.12 2.53.18 3.622 0 .03 0 .062.006.093.015.234.024.47.04.694 0 .04.004.08.01.122l.03.606.013.166.03.558c.003.044.003.093.008.14.01.176.022.352.034.52.002.052.005.103.01.152l.03.465.01.176c.01.146.023.3.028.44.005.03.005.06.01.08.105 1.515.196 2.65.28 3.507l38.006-.14-.137 3.118-.167 3.77h15.237l-.8-2.857c-.26-.933-.48-2.306-.667-4.03h136.024c-.185 1.725-.405 3.097-.667 4.03l-.8 2.86h15.237l-.17-3.772c-.048-1.056-.092-2.083-.136-3.117l38.018.016c.083-.844.174-1.944.274-3.382 0-.022.003-.052.003-.08.012-.143.02-.295.03-.44l.014-.177c.006-.15.016-.31.028-.465.002-.05.007-.1.012-.15.01-.17.018-.346.03-.523.002-.047.005-.096.01-.14.01-.184.02-.367.034-.558.002-.054.004-.11.01-.166.01-.193.02-.4.034-.607.002-.042.002-.084.005-.123.015-.225.026-.46.04-.694 0-.03.004-.06.004-.093.06-1.09.122-2.294.188-3.622 0-.04 0-.088.002-.135.012-.27.027-.547.042-.83 0-.108.006-.224.014-.334.012-.242.02-.48.03-.727.006-.103.01-.206.014-.31.015-.263.026-.534.036-.813.005-.095.01-.198.01-.3.015-.265.024-.536.04-.805.002-.135.004-.274.014-.414l.03-.77c.004-.146.014-.293.02-.444l.03-.868c.01-.11.01-.223.013-.345.017-.333.028-.69.043-1.037 0-.098.008-.18.008-.276.016-.345.025-.704.04-1.063.005-.11.01-.213.012-.323.015-.433.03-.865.044-1.314.003-.03.003-.06.003-.09.038-.98.067-2 .102-3.058 0-.08.005-.16.01-.234.015-.447.03-.895.04-1.357.007-.13.01-.27.014-.407.01-.413.024-.83.037-1.252.002-.14.007-.283.015-.422.012-.423.022-.852.036-1.284.005-.17.008-.345.015-.52.01-.404.02-.81.033-1.226.005-.21.01-.425.018-.638.008-.374.018-.756.03-1.145.007-.25.015-.5.017-.748.013-.384.025-.778.035-1.174.007-.228.01-.455.02-.683.004-.41.02-.832.03-1.254.003-.264.013-.53.02-.807.01-.375.02-.764.025-1.148l.023-.863c.007-.434.02-.88.03-1.32l.02-.77c.01-.55.023-1.108.033-1.666.005-.154.01-.31.012-.47.018-.74.032-1.497.047-2.26.01-.242.01-.477.012-.72.027-1.253.044-2.496.052-3.704v-.022c.27-42.125-8.716-58.527-8.716-58.527 7.212 4.327 11.777 28.604 11.777 28.604 11.06-11.298 9.855-29.32 9.855-29.32s.722 1.918 1.442 4.567c3.453 12.656-8.172 29.083-9.612 37.733-.096.58-.17 1.482-.22 2.64 0 .016 0 .03-.003.038-.014.243-.02.5-.03.764v.022c-.01.267-.02.543-.024.83 0 .006-.003.02-.003.033-.075 3.15-.052 7.55.052 12.62 0 .007 0 .022.005.03.01.525.017 1.056.03 1.59 0 .023 0 .038.004.065.015.67.03 1.345.05 2.042l.02.822c.003.182.013.358.015.542l.02.748c.01.223.01.455.02.682.006.245.016.492.02.734.01.242.016.477.026.72.005.256.017.513.024.767l.022.704c.007.235.015.472.026.714.005.258.015.522.024.786l.022.697c.012.26.022.524.03.785.006.234.016.47.025.704l.03.836c.008.22.016.447.022.668.01.27.022.543.035.814.004.223.017.447.023.677.01.306.025.614.037.924l.023.556c.015.315.03.624.04.94.01.197.02.41.025.615.015.302.03.603.042.903.005.206.017.404.024.61.016.32.03.645.045.967l.023.512c.017.36.03.73.05 1.088.01.132.01.272.02.398.02.387.035.775.055 1.157.008.117.01.237.02.352.27 5.576.577 10.917.897 15.458l.003.008c.03.413.056.814.085 1.215l.003.01c.06.803.118 1.57.177 2.31.255 3.124.51 5.687.753 7.418l78.287-.015v-1.84H440.88zm64.724-5.85h-4.323v-8.41h4.324v8.41zm0-14.06h-4.323v-8.408h4.324v8.407zm0-14.057h-4.323v-8.415h4.324v8.415zm-5.477-23.75l3.156-3.154c.057-.008.103-.023.16-.023.028 0 .053.007.078.007l3.243 3.248c.005.03.012.054.012.083 0 .155-.013.31-.036.456v9.773h-6.597v-9.772c-.017-.145-.03-.3-.03-.454 0-.06.01-.11.014-.162zm-12.428 23.75h-2.405v-8.175h2.404v8.175zm4.807 0h-2.4v-8.175h2.4v8.175zm-3.482-29.417l6.025 6.02-1.38.97v9.045h-9.292v-9.044l-1.374-.97 6.02-6.02zm-12.502 57.533h-4.33v-8.41h4.33v8.41zm0-14.06h-4.33v-8.408h4.33v8.407zm0-14.057h-4.33v-8.415h4.33v8.415zm-5.478-23.75l3.155-3.154c.054-.008.104-.023.16-.023.03 0 .05.007.08.007l3.24 3.248c0 .03.01.054.01.083 0 .155-.012.31-.032.456v9.773h-6.596v-9.772c-.022-.145-.032-.3-.032-.454 0-.06.01-.11.015-.162zm-6.68-42.6c.043.036.094.073.14.11-.136.006-.268.028-.4.036.088-.045.176-.096.26-.148zm-8.232 5.75c.826-1.202 1.416-2.48 1.814-3.77.543-.037 1.09-.095 1.643-.198.32 1.316.904 2.597 1.74 3.77-1.803-.285-3.573-.205-5.197.2zm1.057-18.81c.577.625 1.198 1.182 1.878 1.632.974-.802 1.82-1.807 2.504-2.966-.23 1.863-.063 3.67.426 5.313-.837.196-1.678.453-2.51.812-1.745.75-3.237 1.805-4.455 3.03-.034-1.415-.268-2.766-.668-4.02 1.103-1.05 2.08-2.327 2.825-3.8zm-3.25 21.327c.29.756.67 1.49 1.13 2.194-.982-.25-2.012-.404-3.08-.44-.146-.007-.284.012-.428.012.835-.496 1.63-1.083 2.38-1.766zm-299.436-8.157c.044-.037.095-.074.14-.11.085.05.173.103.26.147-.13-.008-.263-.03-.4-.037zm2.93-14.505c.687 1.16 1.536 2.164 2.504 2.966.68-.45 1.306-1.007 1.878-1.63.748 1.474 1.72 2.75 2.827 3.8-.4 1.253-.636 2.603-.667 4.02-1.218-1.226-2.712-2.282-4.458-3.03-.827-.36-1.673-.617-2.51-.813.494-1.64.658-3.448.426-5.312zm.245 19.948c.83-1.174 1.417-2.455 1.735-3.77.555.102 1.1.16 1.643.197.4 1.29.993 2.568 1.814 3.77-1.618-.403-3.39-.483-5.193-.197zm9.335 4.468c-1.066.037-2.098.19-3.08.44.463-.705.845-1.438 1.128-2.194.748.683 1.55 1.27 2.382 1.766-.14 0-.283-.02-.43-.012zm-49.288 84.445H113.4v-8.41h4.327v8.41zm0-14.06H113.4v-8.408h4.327v8.407zm0-14.057H113.4v-8.415h4.327v8.415zm1.137-23.132v9.773h-6.596v-9.772c-.022-.145-.037-.3-.037-.454 0-.074.02-.147.023-.213l3.1-3.104c.07 0 .14-.023.214-.023.005 0 .018.007.024.007l3.303 3.302c0 .007.005.015.005.03 0 .154-.014.31-.034.455zm10.04 23.133h-2.403v-8.175h2.405v8.175zm4.81 0h-2.407v-8.175h2.406v8.175zm1.036-22.427v9.045h-9.293v-9.044l-1.375-.97 6.02-6.02 6.024 6.02-1.376.97zm12.06 50.543h-4.327v-8.41h4.328v8.41zm0-14.06h-4.327v-8.408h4.328v8.407zm0-14.057h-4.327v-8.415h4.328v8.415zm1.168-23.588c.002.155-.01.31-.033.456v9.773h-6.595v-9.772c-.017-.145-.037-.3-.037-.454 0-.074.02-.147.022-.213l3.098-3.104c.074 0 .142-.023.215-.023.01 0 .017.007.03.007l3.3 3.302v.03zm19.658 51.826h-4.323v-8.414h4.323v8.415zm0-14.056h-4.323v-8.415h4.323v8.414zm0-14.064h-4.323v-8.415h4.323v8.415zm10.82 28.12h-4.33v-8.414h4.33v8.415zm0-14.056h-4.33v-8.415h4.33v8.414zm0-14.064h-4.33v-8.415h4.33v8.415zm-11.48-20.66v4.8h-9.588v-12.622h13.16l-4.96 6.855 1.388.968zm13.73 4.8h-6.037v-4.8l1.388-.967-4.964-6.855h9.682c.073 3.067.04 7.485-.07 12.62zm-3.304-68.457c-1.32-1.496-2.87-2.636-4.498-3.41.705-.772 1.328-1.657 1.83-2.635 1.18-.146 2.362-.477 3.506-.998-.44 1.15-.758 2.387-.89 3.702-.117 1.147-.088 2.262.052 3.34zm6.17 31.825c-.628-1.02-1.185-2.07-1.68-3.126 1.992-2.225 3.244-5.4 3.244-8.936 0-.374-.03-.74-.054-1.108.455.927 1.018 1.768 1.648 2.526-1.344 3.71-2.4 7.526-3.16 10.644zm8.993-24.57c-.748-2.227-2.025-4.134-3.648-5.48-3.13 2.08-5.25 6.09-5.25 10.697 0 .374.028.74.055 1.105-.73-1.48-1.7-2.764-2.86-3.756.082-.9.06-1.824-.08-2.763 3.282-1.767 5.762-5.51 6.226-10.058.27-2.658-.196-5.18-1.198-7.3.89-.635 1.736-1.383 2.495-2.26.48-.55.895-1.13 1.276-1.723-.295.97-.486 1.995-.566 3.068-.58-.08-1.164-.127-1.736-.113-.993 3.617.044 8.033 3.07 11.51 1.082 1.24 2.32 2.234 3.63 2.987-.67 1.233-1.143 2.612-1.413 4.087zm216.884-12.117c.526 1.936 1.515 3.843 2.982 5.528.73.84 1.535 1.558 2.382 2.174-.533 1.113-.92 2.326-1.145 3.617-1.014-1.006-2.13-1.835-3.31-2.452.602-3.11.124-6.158-1.232-8.535.11-.107.208-.22.32-.332zm3.728 36.373c-2.012-.235-3.97-.022-5.705.587 1.018-1.523 1.683-3.184 1.922-4.842.533.814 1.125 1.622 1.815 2.384.62.69 1.286 1.3 1.968 1.87zm-8.292-7.197c.854-.668 1.602-1.416 2.255-2.208.28 1.19.734 2.394 1.346 3.582-2.187-.457-4.622-.28-6.984.597 1.17-.485 2.314-1.128 3.384-1.97zm-4.657-25.208c.887.022 1.794-.074 2.7-.28-.818 1.057-1.518 2.26-2.034 3.605-.442 1.157-.72 2.323-.857 3.475-.848.345-1.682.777-2.486 1.306.024-.33.054-.653.054-.99 0-1.526-.25-2.974-.68-4.33 1.203-.884 2.297-2.01 3.19-3.36.038.192.063.383.11.574zm.684 27.424c-.758.318-1.514.694-2.24 1.164-1.636 1.05-2.956 2.372-3.967 3.825.396-1.422.808-2.846 1.228-4.225 1.62.088 3.32-.162 4.98-.763zm-2.044-41.928c-1.218.645-2.357 1.538-3.355 2.64.088-.923.098-1.87-.003-2.837-.002-.05-.017-.088-.02-.127 1.076.236 2.206.355 3.378.324zm-7.13 30.46c-.178.683-.293 1.365-.35 2.048-1.07 1.533-2.158 3.426-3.232 5.76-.743-2.796-1.72-5.746-2.98-8.306 1.474-.675 2.892-1.636 4.142-2.905.63 1.314 1.452 2.458 2.42 3.405zm-6.587-28.098c.32-.367.6-.746.873-1.122.518 2.897 1.844 5.404 3.675 7.197-1.537.57-3.023 1.46-4.358 2.654-.21-1.462-.65-2.94-1.365-4.37-.38-.763-.83-1.455-1.31-2.105.885-.64 1.726-1.386 2.486-2.254zm-7.735-5.88c.017.048.03.097.044.144-.03.044-.068.076-.093.12.02-.09.033-.18.048-.265zm-1.013 22.593l.09.644c-.35 1.225-.554 2.54-.554 3.91 0 1.417.226 2.774.598 4.043-1.612-.702-3.292-1.05-4.91-1.012-.22.8-.323 1.643-.343 2.51l-1.938-1.086c.01-.85-.068-1.718-.24-2.584 1.498.602 3.01.954 4.454 1.015.487-2.283.133-4.94-.997-7.55 1.31.234 2.6.263 3.842.11zm-.665-19.326v.002c-.065-.017-.127-.046-.195-.06-.31.542-.545 1.122-.758 1.718-.304-.098-.61-.2-.92-.28-.38.673-.672 1.395-.904 2.158-.003-1.895-.487-3.876-1.438-5.742 1.295 1.046 2.74 1.786 4.215 2.204zm-11.187 7.144c-.003-1.462-.286-2.97-.852-4.436 2.576 2.414 5.775 3.668 8.775 3.624-.046.917-.002 1.84.147 2.788-.125-.068-.235-.16-.365-.227-2.51-1.402-5.212-1.945-7.704-1.75zm1.115 29.56c1.308.08 2.585-.03 3.778-.337.317.772.685 1.696 1.093 2.72-1.373-1.066-3.026-1.892-4.872-2.382zm12.117 34.78c.107 3.59.225 7.91.325 12.62h-3.712v-4.797l1.39-.967-4.958-6.855h6.955zm-7.508 0l-4.962 6.855 1.392.968v4.8h-2.715l-5.145-12.622h11.43zm-20.11 2.768h4.327v8.407h-4.328v-8.407zm-75.213-18.627h69.338v17.782h-3.722v-11.056h-6.73v11.056h-7.033v-11.056h-6.728v11.056h-7.03v-11.056h-7.093v.154l.36-.007v10.91h-7.03v-11.057h-6.727v11.056h-7.032v-11.056h-6.73v11.056h-3.844V286.24zm-2.647 16.865v.917h-.09l.09-.917zm-.236 3.08l74.746-.028v1.59H272.07v-1.56zm-7.556-1.32h4.326v8.408h-4.326v-8.407zm-4.356-2.767l-5.14 12.62h-2.715v-4.797l1.39-.967-4.965-6.855h11.43zm-11.978 0l-4.96 6.855 1.39.968v4.8h-3.713c.098-4.71.215-9.032.328-12.622h6.955zm.29-32.398c.402-1.024.772-1.95 1.092-2.72 1.19.31 2.467.42 3.778.338-1.844.49-3.5 1.316-4.87 2.382zm6.836-36.378c-.565 1.467-.846 2.974-.85 4.436-2.495-.196-5.2.347-7.71 1.75-.126.065-.236.158-.36.226.15-.946.195-1.87.146-2.788 2.998.044 6.2-1.21 8.774-3.624zm-7.825-4.91c-.948 1.865-1.437 3.846-1.437 5.74-.23-.762-.52-1.483-.9-2.156-.313.078-.616.18-.922.28-.21-.598-.454-1.177-.762-1.72-.06.015-.125.044-.19.06h-.004c1.483-.42 2.923-1.16 4.217-2.205zm-4.968 22.172l.093-.645c1.237.153 2.53.124 3.84-.11-1.13 2.61-1.488 5.267-.998 7.55 1.445-.06 2.956-.413 4.453-1.015-.174.866-.25 1.734-.237 2.583l-1.936 1.085c-.024-.866-.128-1.71-.348-2.51-1.617-.036-3.297.312-4.906 1.013.37-1.27.59-2.626.59-4.042-.002-1.37-.205-2.685-.552-3.91zm-.92-23.24l.046.265c-.03-.045-.062-.077-.09-.12.014-.047.024-.096.044-.145zm-8.61 4.76c.27.376.554.755.872 1.122.758.868 1.6 1.614 2.487 2.252-.483.65-.93 1.343-1.308 2.105-.72 1.43-1.156 2.908-1.364 4.37-1.335-1.193-2.827-2.083-4.363-2.653 1.828-1.792 3.16-4.3 3.676-7.196zm-3.294 25.816c1.252 1.27 2.663 2.23 4.143 2.905-1.258 2.56-2.24 5.51-2.978 8.307-1.076-2.335-2.166-4.228-3.238-5.76-.054-.684-.167-1.366-.352-2.048.973-.946 1.8-2.09 2.426-3.404zm-6.17-27.38c-.007.038-.017.077-.022.126-.098.968-.093 1.915-.005 2.836-.997-1.1-2.13-1.993-3.35-2.64 1.165.033 2.3-.086 3.378-.323zm-4.74 14.828c.05-.19.073-.382.115-.572.89 1.35 1.983 2.475 3.186 3.36-.43 1.355-.678 2.803-.678 4.33 0 .336.03.66.05.99-.803-.53-1.634-.962-2.483-1.307-.14-1.153-.414-2.32-.86-3.476-.517-1.345-1.217-2.548-2.03-3.604.906.204 1.81.3 2.698.278zm4.297 28.186c.416 1.38.826 2.803 1.22 4.226-1.005-1.453-2.326-2.773-3.96-3.825-.733-.47-1.483-.846-2.246-1.164 1.66.603 3.36.853 4.985.764zm-11.207-5.186c.653.792 1.396 1.54 2.257 2.208 1.066.844 2.21 1.487 3.38 1.97-2.362-.875-4.798-1.053-6.984-.596.614-1.188 1.07-2.39 1.348-3.582zm-.338 9.992c-1.734-.61-3.686-.822-5.7-.587.68-.572 1.344-1.18 1.97-1.87.69-.764 1.28-1.57 1.81-2.385.245 1.658.908 3.318 1.92 4.842zm-4.957-31.432c1.467-1.685 2.46-3.592 2.988-5.527.108.113.21.226.32.334-1.358 2.377-1.835 5.424-1.233 8.535-1.18.615-2.296 1.444-3.31 2.45-.22-1.29-.613-2.504-1.144-3.617.85-.617 1.65-1.336 2.38-2.175zm-10.45 19.828c1.73.878 3.757 1.31 5.892 1.23-.39.375-.777.756-1.15 1.167-3.552 3.933-5.017 8.723-4.21 12.51.328-.016.665-.067 1.002-.11-1.812 1.708-3.044 3.807-3.5 5.99 3.026 1.646 7.09 1.895 10.97.342 3.894-1.558 6.653-4.565 7.697-7.867.812.888 1.746 1.702 2.827 2.392 3.35 2.164 7.176 2.722 10.377 1.864l.638 2.502 1.032 4.028c.53 2.047.93 5.26 1.198 9.61H213.2v-8.89h-6.01v8.89h-15.887c.773-15.818 2.93-26.786 4.82-33.658zm33.19 47.962h-2.296v-4.798l1.31-1.093-4.88-6.73h5.544c.104 2.013.32 12.35.323 12.62zm-9.984-4.797v4.8h-18.27v-4.8l1.39-.967-4.96-6.855h25.41l-4.965 6.855 1.394.968zm-28.295-.967c-.21-1.145.146-5.76.19-6.855h5.718l-4.91 6.73 1.335 1.093v4.8h-2.353c-.014-1.982-.01-3.906.02-5.767zm37.068 55.477h-35.36c-.036-.455-.075-.96-.11-1.525h35.537l-.067 1.525zm-27.522-28.2v8.414h-4.325v-8.415h4.326zm-4.324-5.65v-8.415h4.326v8.415h-4.326zm4.325 19.706v8.415h-4.325v-8.414h4.326zm11.78-14.057v8.414h-4.33v-8.415h4.33zm-4.33-5.65v-8.415h4.33v8.415h-4.33zm4.33 19.706v8.415h-4.33v-8.414h4.33zm11.774-14.057v8.414h-4.326v-8.415h4.326zm-4.326-5.65v-8.415h4.326v8.415h-4.326zm4.326 19.706v8.415h-4.326v-8.414h4.326zm5.187-31.84h-38.26c-.013-.69-.025-1.372-.03-2.042h38.29v2.042zm1.402 52.155c.05-1.203 3.528-61.975-.235-80.517-3.602-13.94-7.207-30.043-12.017-30.285 0 0 7.452-.242 13.22 20.19 0 0 1.685-14.9 6.732-21.15 0 0-2.888 20.19-2.406 24.273 0 0 3.847-15.386 12.02-19.952 0 0-8.895 20.432-9.376 30.285-.076 1.62-.19 4.526-.308 8.29-.003.125-.007.237-.012.364-.108 3.576-.225 7.896-.325 12.62-.003.016-.003.038-.003.057-.144 6.696-.254 14.194-.273 21.52v.037c-.004.997-.004 1.982-.004 2.958v.05c0 .97.003 1.94.008 2.892.005.03.005.06.005.096 0 .954.01 1.902.016 2.842v.05c.012.953.022 1.885.032 2.81v.028c.093 6.332.748 17.63.812 18.21v.007c.184 1.795.404 3.25.66 4.328h-8.548zm137.232-25.956v-8.415h4.323v8.414h-4.323zm4.323 5.642v8.415h-4.323v-8.414h4.323zm-4.323-19.706v-8.415h4.323v8.415h-4.323zm-4.19-12.134v44.46h14.04c-.033.526-.072 1.04-.11 1.524H241.314c-.04-.484-.075-.998-.117-1.525h14.044v-44.46h-14.42c.01-.69.025-1.37.04-2.04l31.207.11v-7.047h74.746v7.048l31.326-.112c.015.67.03 1.352.042 2.042h-14.42zM251.055 336.23v8.414h-4.33v-8.415h4.33zm-4.33-5.65v-8.415h4.33v8.415h-4.33zm4.33 19.706v8.415h-4.33v-8.414h4.33zM388.292 370.6h-8.552c.257-1.077.477-2.532.66-4.327v-.008c.06-.58.117-1.188.17-1.83v-.004c.35-4.33.55-10.042.64-16.374v-.03c.012-.923.024-1.854.034-2.81v-.048c.007-.94.015-1.888.02-2.842v-.096c.005-.953.005-1.922.01-2.89v-.052c0-.976 0-1.96-.005-2.957v-.035c-.02-7.327-.134-14.825-.27-21.52 0-.02-.006-.043-.006-.057-.098-4.725-.215-9.045-.327-12.62-.003-.128-.005-.24-.015-.365-.118-3.764-.226-6.67-.31-8.29-.474-9.853-9.37-30.285-9.37-30.285 8.173 4.566 12.018 19.953 12.018 19.953.48-4.083-2.4-24.273-2.4-24.273 5.046 6.25 6.73 21.15 6.73 21.15 5.766-20.43 13.214-20.19 13.214-20.19-4.803.243-8.41 16.346-12.017 30.286-.597 2.318-1.008 5.91-1.28 10.33v.03c-.487 25.432-.487 37.182 1.055 70.158zm1.427-60.81c.056-2.435.19-5.68.292-7.692h5.547l-5 6.73 1.43 1.093v4.8h-2.295c.01-1.535-.272-3.53.024-4.93zm36.547 54.64h-35.36l-.067-1.525h35.537c-.04.564-.08 1.07-.11 1.525zm-27.07-28.2v8.414h-4.328v-8.415h4.327zm-4.328-5.65v-8.415h4.327v8.415h-4.328zm4.327 19.706v8.415h-4.328v-8.414h4.327zm7.452-5.642v-8.415h4.325v8.414h-4.326zm4.325 5.642v8.415h-4.326v-8.414h4.325zm0-19.706h-4.327v-8.415h4.326v8.415zm11.777 5.65v8.414h-4.323v-8.415h4.322zm-4.323-5.65v-8.415h4.322v8.415h-4.323zm4.322 19.706v8.415h-4.323v-8.414h4.322zm5.194-31.84h-38.26c-.002-.697-.002-1.38 0-2.042h38.294c-.01.67-.02 1.352-.034 2.042zm-10-8.525v4.8H399.68v-4.8l1.39-.967-4.958-6.855h25.403l-4.96 6.855 1.392.968zm10.05 4.8h-2.36v-4.8l1.36-.967.006-.032-4.935-6.822h5.713c.277 2.643.277 9.496.215 12.62zm-5.112-47.964c1.89 6.872 4.043 17.84 4.818 33.657h-15.886v-8.892h-6.007v8.893h-15.7c.268-4.35.67-7.564 1.203-9.61l1.03-4.03c.197-.776.41-1.613.638-2.5 3.204.857 7.03.3 10.38-1.865 1.075-.69 2.012-1.504 2.82-2.392 1.048 3.302 3.806 6.31 7.702 7.867 3.876 1.553 7.938 1.304 10.968-.342-.455-2.183-1.688-4.28-3.5-5.99.335.044.673.095 1 .11.808-3.786-.655-8.576-4.21-12.51-.37-.41-.76-.79-1.147-1.166 2.135.083 4.165-.35 5.89-1.228zm12.552 11.332c-.76-3.118-1.816-6.933-3.157-10.643.63-.758 1.19-1.6 1.646-2.526-.03.366-.06.733-.06 1.107 0 3.536 1.26 6.71 3.25 8.936-.493 1.057-1.05 2.105-1.68 3.125zm2.708-22.004c-1.16.993-2.132 2.277-2.856 3.756.025-.364.055-.73.055-1.105 0-4.607-2.12-8.618-5.248-10.696-1.627 1.344-2.903 3.25-3.654 5.48-.263-1.476-.744-2.855-1.407-4.088 1.31-.753 2.543-1.746 3.627-2.986 3.024-3.478 4.064-7.894 3.068-11.51-.572-.016-1.154.033-1.733.112-.08-1.074-.27-2.1-.57-3.07.382.595.793 1.175 1.277 1.725.763.876 1.608 1.624 2.494 2.26-1 2.12-1.468 4.64-1.198 7.3.462 4.548 2.944 8.29 6.23 10.058-.143.94-.168 1.864-.084 2.764zm3.462-9.82c.14-1.08.17-2.195.052-3.342-.132-1.315-.453-2.553-.896-3.702 1.147.52 2.333.85 3.507.998.506.978 1.13 1.863 1.833 2.636-1.627.773-3.175 1.913-4.497 3.41zm20.014 55.834v12.62h-9.59v-4.797l1.393-.967-4.964-6.855h13.16zm-23.393 0h9.685l-4.962 6.855 1.392.968v4.8h-6.04c-.11-5.137-.144-9.555-.075-12.622zm13.142 20.067h4.327v8.415h-4.328v-8.415zm0 14.064h4.327v8.414h-4.328v-8.415zm0 14.056h4.327v8.415h-4.328v-8.414zm-10.815-28.12h4.324v8.414h-4.325v-8.415zm0 14.063h4.324v8.414h-4.325v-8.415zm0 14.056h4.324v8.415h-4.325v-8.414z"/><path d="M320.287 244.656h-10.332v-4.005h5.617v-4.636h-7.048l-.01 8.642H298.42v7.212h21.867M269.906 280.95h79.076v1.84h-79.076zM273.182 256.432v20.41c-.372.792-.71 1.607-1.027 2.428h32.755v-7.014l-1.76-.968 6.203-8.288 6.204 8.288-1.76.968v7.014h32.754c-.317-.822-.654-1.636-1.026-2.428v-20.41h-6.73v10.34c-4.92-5.386-11.3-9.406-18.508-11.456v-2.01H298.42v2.01c-7.21 2.05-13.587 6.07-18.512 11.455v-10.338h-6.726zM274.714 310.992v27.643h4.856v-7.388c-.018-.125-.03-.25-.03-.38 0-.104.02-.2.03-.302l2.41-2.41c.1-.01.2-.033.305-.033.06 0 .112.02.17.022l2.554 2.553c.002.056.017.11.017.168 0 .132-.013.257-.03.38v7.39h8.276v-7.39c-.018-.124-.03-.248-.03-.38 0-.103.018-.198.03-.3l2.408-2.41c.102-.012.202-.034.305-.034.06 0 .112.02.17.023l2.554 2.553c.004.056.02.11.02.168 0 .132-.016.257-.03.38v7.39h4.375l3.9-3.904v-3.485c-.02-.125-.03-.25-.03-.38 0-.104.02-.2.03-.302l2.41-2.41c.1-.01.197-.033.3-.033.06 0 .112.02.17.022l2.555 2.553c.005.056.015.11.015.168 0 .132-.005.257-.03.38v3.37l4.022 4.02h4.255v-7.39c-.015-.124-.03-.248-.03-.38 0-.103.026-.198.03-.3l2.41-2.41c.103-.012.2-.034.304-.034.06 0 .115.02.172.02l2.555 2.554c.003.056.016.11.016.168 0 .132-.014.257-.03.38v7.39h8.275v-7.39c-.018-.124-.03-.248-.03-.38 0-.03.008-.06.013-.088l2.637-2.64c.033 0 .062-.016.093-.016.132 0 .254.022.384.044l2.32 2.323c.015.122.04.25.04.377 0 .132-.013.257-.03.38v7.39h4.857v-27.644h-69.946v.004zm62.486 2.758h.03l2.58 2.583c.004.044.016.095.016.146 0 .124-.012.25-.03.374v7.072h-5.425v-7.072c-.012-.08-.015-.17-.017-.257l2.847-2.847zm-16.55 2.656l2.665-2.668h.02l2.788 2.788c-.005.115-.013.225-.027.328v7.072h-5.426v-7.072c-.015-.125-.03-.25-.03-.375 0-.03.01-.047.01-.074zm-13.7 0l2.665-2.668h.018l2.79 2.788c-.003.115-.015.225-.03.328v7.072h-5.418v-7.072c-.02-.125-.03-.25-.03-.375 0-.03.003-.047.005-.074zm-13.7 0l2.666-2.668h.015l2.793 2.788c-.005.115-.01.225-.024.328v7.072h-5.427v-7.072c-.018-.125-.03-.25-.03-.375 0-.03.008-.047.008-.074zm-13.698 0l2.664-2.668h.02l2.788 2.788c-.005.115-.012.225-.026.328v7.072h-5.427v-7.072c-.017-.125-.028-.25-.028-.375 0-.03.01-.047.01-.074z"/></g></svg>